<svg width="396" height="430" viewBox="0 0 396 430" fill="none" xmlns="http://www.w3.org/2000/svg">
<path d="M215.103 365.935C224.754 365.767 234.439 365.632 244.057 364.724C248.866 364.287 253.708 363.648 258.315 362.27C261.947 361.193 265.747 359.378 267.428 355.981C267.664 355.51 267.866 354.972 267.765 354.434C267.698 353.896 267.361 353.459 266.958 353.089C265.007 351.172 261.981 351.105 259.257 351.139C232.59 351.509 205.923 352.013 179.323 354.165C174.547 354.569 169.133 355.342 166.376 359.277C160.356 367.852 181.071 365.969 184.804 366.07C194.926 366.271 205.014 366.103 215.103 365.935Z" fill="url(#paint0_linear_122_132)"/>
<path d="M215.104 365.935C224.755 365.767 234.44 365.632 244.058 364.724C248.867 364.287 253.709 363.648 258.316 362.269C261.948 361.193 265.748 359.377 267.429 355.981C267.665 355.51 267.867 354.972 267.766 354.434C267.699 353.896 267.362 353.459 266.959 353.089C265.008 351.172 261.982 351.105 259.258 351.138C232.591 351.508 205.924 352.013 179.324 354.165C174.548 354.568 169.134 355.342 166.377 359.276C160.357 367.852 181.072 365.968 184.805 366.069C194.927 366.271 205.015 366.103 215.104 365.935Z" fill="url(#paint1_linear_122_132)"/>
<path d="M147.175 239.426C154.371 274.803 174.851 306.413 182.014 341.824C182.485 344.144 182.922 346.532 184.199 348.482C185.511 350.433 187.932 351.879 190.185 351.273C194.288 350.164 194.254 344.447 193.683 340.243C192.001 327.7 193.447 314.955 194.927 302.378C197.214 282.773 199.5 263.168 201.787 243.529C203.502 241.746 206.596 242.15 208.479 243.764C210.362 245.345 211.27 247.766 212.01 250.12C215.339 260.578 216.718 271.507 218.13 282.369C220.922 304.127 223.679 325.918 224.015 347.843C225.999 347.978 227.984 348.112 229.968 348.213C238.106 326.49 244.226 304.093 249.976 281.663C252.902 270.297 255.727 258.897 257.576 247.295C259.997 232.061 260.636 216.592 261.141 201.191C261.242 198.063 261.275 194.734 259.493 192.145C257.913 189.858 255.189 188.681 252.566 187.672C230.068 179.03 205.89 175.835 181.879 173.952C175.12 173.414 168.293 173.01 161.635 174.221C156.389 175.163 150.672 177.247 146.738 181.014C142.299 185.284 143.745 192.044 143.711 197.929C143.644 211.817 144.384 225.773 147.175 239.426Z" fill="#666666"/>
<path d="M132.95 160.904C130.731 167.63 128.982 175.6 133.085 181.384C135.035 184.108 137.994 185.89 140.987 187.403C157.801 195.877 177.037 197.861 195.768 199.677C212.649 201.325 229.598 202.973 246.546 202.065C254.617 201.628 263.125 200.451 269.414 195.373C275.399 190.564 278.527 182.863 279.368 175.23C280.208 167.596 279.065 159.895 277.888 152.295C276.61 143.955 275.332 135.616 273.146 127.478C269.346 113.32 262.722 99.9361 253.844 88.3008C247.118 79.5238 238.946 71.5876 228.925 66.8796C219.442 62.4071 205.049 60.3557 195.196 65.1645C185.343 69.9397 176.297 83.6937 169.706 92.168C153.665 112.782 141.122 136.12 132.95 160.904Z" fill="#FCEE9F"/>
<path d="M226.873 42.3982C226.772 44.1805 226.671 45.9964 226.167 47.7451C224.923 51.8813 221.156 55.614 216.045 57.5981C210.933 59.5822 204.578 59.8175 199.332 58.0689C194.119 56.3538 190.286 52.991 187.225 49.46C180.836 42.0618 177.103 33.2513 177.978 24.5079C178.112 23.1964 178.381 21.8513 179.491 20.8088C181.072 19.3292 183.863 18.9929 186.385 18.7911C194.691 18.0513 217.726 12.8053 224.553 16.8071C231.312 20.7752 227.209 36.8495 226.873 42.3982Z" fill="#F2D6C9"/>
<path d="M159.753 17.278C160.963 22.4231 167.521 26.324 174.549 27.232C181.577 28.1063 188.807 26.4249 194.928 23.7346C201.451 20.8426 207.572 16.6391 215.172 16.4037C216.584 16.37 218.03 16.4709 219.241 16.9417C220.586 17.4798 221.561 18.455 222.335 19.4302C226.673 24.8107 227.312 31.3346 227.85 37.5558C230.17 32.1417 232.02 26.6266 233.331 21.0107C234.777 14.8904 235.181 7.72757 229.128 3.45678C224.521 0.194845 217.425 -0.376839 211.036 0.194841C202.057 1.00192 193.414 3.75946 186.453 7.99661C183.696 9.67802 181.174 11.5949 178.147 13.0745C175.154 14.5205 171.522 15.5294 167.958 15.0586C164.057 14.5205 163.284 12.1328 160.56 10.7877C159.45 12.6709 159.282 15.1931 159.753 17.278Z" fill="#D1B380"/>
<path d="M240.761 104.947C238.273 100.373 234.607 96.6408 231.513 92.4709C228.42 88.301 225.83 83.3913 226.099 78.2126C226.368 73.0338 230.437 67.7878 235.616 67.8214C237.768 67.8214 239.786 68.6957 241.703 69.671C247.924 72.7984 253.607 77.0691 258.282 82.2479C260.097 84.2656 261.779 86.4178 262.956 88.8726C264.671 92.4709 265.142 96.54 265.579 100.508C266.319 107.503 266.924 114.598 265.411 121.459C263.225 131.244 256.23 139.988 246.983 143.922C244.998 144.763 241.972 146.209 240.089 145.133C238.071 143.989 237.701 141.366 238.138 139.382C239.282 133.934 243.014 129.428 243.855 123.644C244.696 117.288 243.855 110.63 240.761 104.947Z" fill="#F2D6C9"/>
<path d="M229.968 143.216C229.565 143.485 229.161 143.788 228.858 144.158C228.119 145.1 228.085 146.377 228.085 147.588C228.085 149.505 228.287 151.758 229.934 152.733C230.674 153.17 231.582 153.237 232.457 153.271C233.365 153.305 234.273 153.372 235.18 153.406C236.156 153.473 237.198 153.507 238.005 152.969C238.846 152.431 239.216 151.422 239.552 150.48C240.359 148.16 241.166 145.873 241.973 143.553C242.108 143.149 242.242 142.712 242.074 142.342C241.973 142.107 241.738 141.938 241.536 141.804C239.619 140.324 238.711 139.585 236.257 140.123C234.205 140.56 231.448 141.737 229.968 143.216Z" fill="#F2D6C9"/>
<path d="M248.094 349.793C246.884 348.684 245.101 348.516 243.487 348.415C241.066 348.247 238.645 348.045 236.224 347.877C235.181 347.809 234.071 347.709 233.231 347.103C232.894 346.868 232.625 346.532 232.39 346.195C231.616 346.195 230.877 346.162 230.103 346.162C227.312 346.095 224.521 347.137 221.797 347.978C222.369 350.365 222.907 352.719 223.478 355.107C223.579 355.578 223.714 356.082 224.084 356.385C224.454 356.687 224.992 356.721 225.496 356.721C233.567 356.923 241.671 356.62 249.708 355.847C249.776 353.661 249.708 351.206 248.094 349.793Z" fill="black"/>
<path d="M192.405 347.641C192.54 350.836 192.641 354.199 191.161 357.057C190.119 359.075 188.37 360.588 186.655 362.101C185.747 362.875 184.873 363.648 183.965 364.455C183.729 364.657 183.46 364.892 183.158 364.993C182.821 365.094 182.451 365.094 182.115 365.061C180.568 364.993 179.055 365.128 177.508 365.027C175.995 364.892 174.414 364.455 173.338 363.346C172.262 362.236 171.926 360.353 172.867 359.142C173.473 358.369 174.481 357.999 175.356 357.561C178.012 356.351 180.299 354.367 181.846 351.912C182.821 350.365 183.729 348.751 185.512 348.112C186.184 347.876 192.405 347.17 192.405 347.641Z" fill="black"/>
<path d="M246.715 136.524C246.345 135.75 245.941 134.977 245.302 134.439C244.462 133.766 243.318 133.732 242.276 133.699C223.545 133.093 204.78 132.455 186.049 131.849C184.536 131.782 183.157 132.757 182.518 134.237C179.492 141.366 175.894 147.352 173.607 154.784C173.304 155.793 174.01 156.801 175.019 156.835C200.308 157.171 226.908 159.895 252.162 157.777C253.877 157.642 254.92 155.692 254.18 154.044C251.658 148.327 249.203 141.635 246.715 136.524Z" fill="#7F7F7F"/>
<path d="M246.209 134.876C245.839 134.103 245.47 133.329 244.797 132.791C243.956 132.119 242.847 132.085 241.838 132.051C223.443 131.446 205.049 130.807 186.688 130.202C185.208 130.135 183.829 131.11 183.224 132.589C180.231 139.719 176.7 145.704 174.481 153.136C174.178 154.145 174.884 155.154 175.859 155.188C200.677 155.524 226.772 158.248 251.556 156.129C253.238 155.995 254.246 154.044 253.54 152.396C251.085 146.68 248.664 139.988 246.209 134.876Z" fill="#666666"/>
<path d="M243.284 136.389C242.948 135.851 242.612 135.279 242.006 134.91C241.267 134.439 240.258 134.405 239.316 134.371C222.738 133.934 206.159 133.464 189.58 133.026C188.235 132.993 187.024 133.665 186.453 134.741C183.762 139.853 180.568 144.157 178.584 149.504C178.315 150.21 178.954 150.95 179.828 150.984C202.224 151.219 225.764 153.203 248.093 151.656C249.606 151.555 250.548 150.143 249.876 148.966C247.69 144.863 245.504 140.055 243.284 136.389Z" fill="#F0F0F0"/>
<path d="M221.46 137.869C221.359 138.003 221.393 138.171 221.426 138.34C222.099 142.207 222.771 146.141 224.251 149.773C228.69 149.773 233.129 149.773 237.568 149.807C238.98 149.807 240.393 149.807 241.738 149.538C240.258 145.704 238.745 141.871 237.265 138.037C232.187 138.172 227.109 138.071 222.065 137.734C221.83 137.701 221.594 137.701 221.46 137.869Z" fill="#E0C74E"/>
<path d="M215.878 137.465C207.706 137.902 199.602 137.768 191.43 137.465C190.791 137.431 190.791 138.407 191.43 138.474C199.568 139.079 207.74 138.978 215.878 138.575C216.584 138.541 216.617 137.431 215.878 137.465Z" fill="#CACACA"/>
<path d="M216.719 140.593C208.715 140.56 200.711 140.795 192.742 141.232C192.136 141.266 192.136 142.207 192.742 142.174C200.745 141.804 208.715 141.703 216.719 141.737C217.458 141.737 217.458 140.593 216.719 140.593Z" fill="#CACACA"/>
<path d="M216.719 144.527C208.312 144.157 199.871 144.09 191.464 144.123C190.825 144.123 190.825 145.099 191.464 145.099C199.905 145.233 208.312 145.502 216.719 145.704C217.459 145.704 217.459 144.561 216.719 144.527Z" fill="#CACACA"/>
<path d="M214.465 147.52C207 147.453 199.501 147.587 192.002 147.654C191.363 147.654 191.363 148.629 192.002 148.629C199.467 148.697 206.966 148.831 214.465 148.764C215.272 148.764 215.272 147.553 214.465 147.52Z" fill="#CACACA"/>
<path d="M183.527 143.383C184.905 143.518 186.318 143.652 187.697 143.383C188.84 143.182 189.95 142.711 190.891 142.038C192.371 140.996 193.481 139.314 193.582 137.498C193.649 135.683 192.505 133.799 190.757 133.295C189.95 133.06 189.109 133.127 188.268 133.295C184.569 133.934 181.206 136.053 177.473 136.322C176.095 136.422 174.548 136.321 173.573 137.263C173.035 137.801 172.766 138.541 172.631 139.315C172.496 140.122 172.463 141.029 172.866 141.736C173.64 143.114 175.893 142.677 177.238 142.778C179.323 142.98 181.408 143.182 183.527 143.383Z" fill="#F2D6C9"/>
<path d="M158.978 78.8175C152.791 83.4582 147.747 89.4776 142.938 95.5307C138.499 101.147 134.094 107.032 131.908 113.858C129.722 120.685 130.092 128.722 134.531 134.338C139.037 140.021 146.57 142.106 153.699 143.485C156.524 144.023 159.416 144.527 162.308 144.325C165.502 144.124 170.647 144.729 173.708 143.72C175.355 143.182 175.356 141.601 176.6 140.391C177.844 139.18 178.113 136.557 177.239 135.078C172.06 134.741 166.881 134.203 161.736 133.463C157.465 132.858 152.825 131.883 150.067 128.587C147.074 125.023 147.276 119.541 149.495 115.439C151.715 111.336 155.582 108.41 159.584 106.023C163.585 103.635 167.856 101.651 171.556 98.8263C177.878 93.9839 204.511 74.7485 196.945 66.6104C190.892 60.2211 164.191 74.883 158.978 78.8175Z" fill="#F2D6C9"/>
<path d="M266.488 91.8992C266.791 89.9824 265.479 88.2001 264.269 86.6868C261.612 83.3912 258.955 80.0621 256.265 76.7665C254.987 75.186 253.709 73.5718 252.129 72.2603C249.001 69.6373 244.966 68.3931 241.065 67.2497C236.593 65.9382 231.38 64.8285 227.614 67.5523C225.025 69.4355 223.848 72.7647 223.848 75.9594C223.848 79.1541 224.89 82.2142 226.033 85.2072C227.715 89.6461 229.531 94.2532 231.918 98.3558C233.902 101.82 236.122 101.55 239.485 100.037C248.262 96.1027 256.938 93.0426 266.488 91.8992Z" fill="#FCEE9F"/>
<path d="M163.619 87.9648C166.511 92.5718 170.075 96.7081 173.64 100.811C173.909 101.147 174.245 101.483 174.682 101.483C175.019 101.483 175.321 101.282 175.557 101.08C178.348 98.9275 180.231 95.8674 182.652 93.3116C187.461 88.2674 194.389 85.3082 198.189 79.4905C200.341 76.1613 201.282 72.0586 200.811 68.1241C200.643 66.7454 200.273 65.3329 199.399 64.2905C198.155 62.7772 196.104 62.1719 194.153 62.1719C191.362 62.1719 188.672 63.1472 186.082 64.156C178.718 67.0144 171.454 70.1755 164.325 73.6056C162.576 74.4463 160.794 75.3206 159.045 76.1949C156.759 77.3719 156.187 77.3383 157.667 79.356C159.785 82.1471 161.735 84.9382 163.619 87.9648Z" fill="#FCEE9F"/>
<path d="M369.694 424.482C376.741 424.482 383.936 424.408 390.653 422.243C391.167 420.664 390.213 418.866 388.818 417.911C387.423 416.957 385.734 416.663 384.046 416.443C378.393 415.709 372.667 415.525 366.941 415.342C344.733 414.681 322.489 414.02 300.245 413.874C297.455 413.837 285.819 414.608 289.123 420.261C291.325 424.041 301.64 422.72 305.237 422.903C318.929 423.564 332.62 424.005 346.348 424.262C354.13 424.408 361.912 424.482 369.694 424.482Z" fill="url(#paint2_linear_122_132)"/>
<path d="M369.693 424.482C376.741 424.482 383.935 424.408 390.653 422.242C391.166 420.664 390.212 418.865 388.817 417.911C387.422 416.957 385.734 416.663 384.045 416.443C378.393 415.709 372.666 415.525 366.94 415.342C344.733 414.681 322.489 414.02 300.245 413.873C297.455 413.837 285.819 414.608 289.122 420.26C291.325 424.041 301.639 422.72 305.237 422.903C318.928 423.564 332.62 424.004 346.348 424.261C354.13 424.408 361.911 424.482 369.693 424.482Z" fill="url(#paint3_linear_122_132)"/>
<path d="M387.787 199.654C387.787 199.654 389.035 179.98 353.393 181.375C352.696 181.411 352.035 181.411 351.374 181.448C351.117 181.595 350.897 181.705 350.64 181.852C350.126 183.173 349.686 184.494 349.355 185.853C349.245 186.22 349.172 186.807 349.062 187.358C348.805 189.487 348.878 188.532 349.062 187.358C349.098 186.917 349.172 186.367 349.245 185.669C349.135 186.55 348.952 187.431 348.842 188.275C347.74 196.131 347.997 204.059 347.3 211.914C346.713 218.632 345.354 225.349 343.886 231.993C345.281 231.919 346.859 231.956 347.74 232.286C349.539 232.947 350.383 395.924 347.3 406.055L361.469 406.202C361.505 406.238 388.962 238.857 387.787 199.654Z" fill="#6087A2"/>
<path d="M348.88 108.145C344.732 107.558 340.327 109.723 338.308 113.394C337.023 115.743 336.693 118.496 336.363 121.176C335.188 130.683 333.683 140.153 331.884 149.586C330.673 155.973 330.526 168.674 321.496 169.298C318.119 169.555 314.632 166.985 311.292 166.472C305.823 165.591 300.684 165.297 295.398 163.388C291.14 161.846 288.314 159.571 285.12 156.487C283.212 154.615 280.532 150.908 277.963 150.211C276.127 149.697 273.815 151.826 274.953 153.331C272.677 151.972 269.41 154.138 269.3 156.818C269.08 161.92 279.137 164.82 282.698 167.022C288.204 170.472 293.636 174.106 299.62 176.676C309.053 180.714 319.257 182.989 329.498 183.173C331.297 183.21 333.206 183.136 334.748 182.219C338.051 180.2 339.813 175.464 342.346 172.528C344.658 169.812 345.906 168.013 346.971 164.489C349.907 154.799 352.44 144.851 354.349 134.904C356.147 126.535 362.351 110.127 348.88 108.145Z" fill="#EADDD0"/>
<path d="M307.328 258.165C307.548 264.442 307.988 270.719 308.392 276.996C309.016 286.393 309.64 295.789 310.227 305.186C310.411 308.196 310.704 311.39 312.54 313.776C312.723 314.033 312.944 314.253 313.237 314.363C314.228 314.73 314.999 313.482 315.33 312.491C319.257 300.671 325.057 289.513 332.508 279.528C334.417 276.996 336.473 274.463 339.225 272.885C341.281 271.71 343.63 271.086 345.98 270.499C350.605 269.324 355.266 268.149 359.891 266.975C362.608 266.277 365.434 265.543 367.563 263.745C369.251 262.313 370.353 260.331 371.417 258.385C376.85 248.585 382.319 238.674 385.072 227.809C387.091 219.88 387.605 211.658 387.458 203.509C387.458 202.702 387.421 201.858 387.127 201.123C386.724 200.096 385.843 199.288 384.925 198.664C381.438 196.351 376.997 196.058 372.812 195.874C356.918 195.177 340.657 194.847 325.094 198.554C320.285 199.692 312.136 200.866 309.787 205.969C306.924 212.209 307.805 221.899 307.474 228.653C306.997 238.454 306.924 248.328 307.328 258.165Z" fill="#6087A2"/>
<path d="M339.813 247.263C330.93 246.052 322.01 244.877 313.127 243.666C312.687 242.528 314.889 243.703 314.742 244.877C310.08 282.061 311.879 319.832 315.586 357.236C317.201 373.35 317.312 389.537 315.623 405.615C319.294 406.019 325.607 406.569 329.241 406.973C335.995 356.869 340.07 306.617 346.824 256.513C347.154 253.98 347.374 251.044 345.429 249.209C343.997 247.85 341.831 247.52 339.813 247.263Z" fill="#6087A2"/>
<path d="M328.25 83.1848C333.573 83.0012 339.005 79.404 344.732 78.2294C343.227 73.6044 345.025 68.6123 345.503 63.767C346.163 57.1965 344.328 50.6628 342.419 44.386C340.877 39.3205 339.152 34.0715 335.518 30.1806C334.784 29.4098 333.94 28.6756 332.949 28.4186C332.068 28.1984 331.15 28.3453 330.269 28.4554C323.992 29.4098 306.557 30.1439 304.905 37.1916C302.629 46.8454 309.273 59.6559 313.017 68.2085C314.779 72.2462 316.578 76.3573 319.661 79.4774C322.451 82.3772 325.351 83.2949 328.25 83.1848Z" fill="#EADDD0"/>
<path d="M389.11 221.348L389.22 221.238C389.293 221.165 389.33 221.091 389.403 221.055C389.55 220.834 389.697 220.651 389.844 220.431C391.716 217.568 393.331 214.557 394.983 211.584C398.066 176.86 394.138 141.805 383.237 107.668C379.823 96.9499 376.446 85.1305 363.635 77.7892C362.975 77.4221 362.277 77.055 361.47 76.9081C360.405 76.7246 359.304 77.0183 358.276 77.2752C351.375 79.0371 344.474 80.7991 337.537 82.5977C336.179 82.9648 334.784 83.2951 333.389 83.6255C331.921 83.9559 330.453 84.2494 328.948 84.4697C326.378 84.8367 316.284 87.2594 315.917 89.682C315.036 95.8854 314.228 102.089 313.531 108.329C311.769 123.709 310.448 139.052 310.484 154.469C310.521 169.849 309.126 185.192 306.593 200.426C306.41 201.6 305.492 207.804 304.391 214.154C304.465 214.264 304.501 214.374 304.575 214.484C305.456 216.172 306.41 217.788 307.474 219.366C307.584 219.513 307.768 219.77 307.952 220.063C308.062 220.174 308.135 220.284 308.209 220.357C309.383 221.715 310.705 223 312.063 224.211C312.173 224.321 312.356 224.468 312.577 224.688C310.705 222.927 312.687 224.725 313.237 225.092C314.669 226.047 316.137 226.928 317.642 227.698C318.009 227.882 319.551 228.543 319.698 228.616C319.844 228.69 320.028 228.726 320.175 228.8C341.832 227.882 363.452 226.377 384.925 224.211C386.247 223.147 387.678 222.082 389.11 221.348Z" fill="#E8E8E8"/>
<path d="M316.577 404.219C316.357 404.219 316.137 404.22 315.917 404.256C315.623 404.33 315.439 404.513 315.256 404.66C314.485 405.431 313.898 406.275 313.567 407.193C313.274 408.037 313.2 408.955 312.576 409.689C311.879 410.533 310.594 411.047 309.309 411.451C306.042 412.515 302.519 413.249 298.958 413.58C298.151 413.653 297.343 413.727 296.609 413.947C294.553 414.644 294.039 416.443 293.783 418.021C293.709 418.462 293.672 419.012 294.223 419.269C294.517 419.416 294.884 419.416 295.251 419.416C305.529 419.379 309.897 419.379 320.138 419.379C322.634 419.379 325.24 419.306 327.663 418.866C327.993 418.792 328.323 418.755 328.58 418.572C328.837 418.388 328.947 418.131 329.057 417.874C330.416 414.351 330.562 410.496 330.269 406.862C330.159 405.725 329.975 404.807 328.176 404.55C325.607 404.183 328.433 404.477 325.827 404.403C322.781 404.366 319.661 404.293 316.577 404.219Z" fill="#97A8B2"/>
<path d="M360.956 46.9189C360.993 43.7622 359.158 40.899 357.616 38.146C355.047 33.5577 352.991 28.6023 349.834 24.3811C346.678 20.1598 342.016 16.636 336.73 16.4892C334.528 16.4158 332.362 16.9297 330.233 17.4436C321.13 19.646 311.953 21.885 303.658 26.2164C302.63 26.767 301.565 27.3544 300.905 28.3454C300.317 29.1897 300.134 30.2541 299.95 31.2819C299.693 32.7135 299.436 34.1817 299.179 35.6133C299.033 36.5309 298.849 37.4487 299.033 38.3296C299.583 41.0826 302.813 42.2938 305.64 42.4774C308.429 42.6242 311.182 42.2572 313.935 41.8534C316.578 41.4863 322.818 39.284 324.947 41.6699C326.012 42.8445 325.681 44.8266 326.416 46.2215C327.297 47.9467 328.948 48.9744 330.05 50.5161C331.187 51.9476 331.995 53.9299 331.151 55.545C332.692 54.6273 334.601 54.3336 336.363 54.774C336.987 54.9209 337.611 55.1779 338.015 55.6551C338.786 56.6094 338.455 58.0777 337.611 58.9586C336.767 59.8396 335.555 60.2433 334.381 60.6104C339.373 65.4189 341.208 73.2374 338.896 79.8079C342.713 79.4041 345.907 76.7613 348.55 73.9716C350.935 71.4388 353.138 68.6858 354.643 65.5658C355.34 64.0975 355.891 62.5925 356.442 61.0876C357.506 58.0776 358.607 55.031 359.672 52.0211C360.332 50.3326 360.92 48.6441 360.956 46.9189Z" fill="#333333"/>
<path d="M348.476 404.551C348.256 404.551 348.036 404.551 347.816 404.587C347.522 404.661 347.338 404.844 347.155 404.991C346.384 405.762 345.797 406.606 345.466 407.524C345.173 408.368 345.099 409.286 344.475 410.02C343.778 410.864 342.493 411.378 341.208 411.782C337.941 412.846 334.417 413.58 330.857 413.911C330.049 413.984 329.242 414.058 328.508 414.278C326.452 414.975 325.938 416.774 325.681 418.352C325.608 418.793 325.571 419.343 326.122 419.6C326.416 419.747 326.783 419.747 327.15 419.747C337.428 419.71 341.796 419.71 352.037 419.71C354.533 419.71 357.139 419.637 359.561 419.196C359.892 419.123 360.222 419.086 360.479 418.903C360.736 418.719 360.846 418.462 360.956 418.205C362.314 414.681 362.461 410.827 362.168 407.193C362.058 406.055 361.874 405.138 360.075 404.881C357.506 404.514 360.332 404.807 357.726 404.734C354.643 404.697 351.56 404.624 348.476 404.551Z" fill="#97A8B2"/>
<path d="M277.01 159.792C275.945 161.921 274.734 164.013 273.413 165.995C273.229 166.289 273.009 166.583 272.678 166.656C272.348 166.766 271.981 166.583 271.687 166.436C268.127 164.674 264.603 162.912 261.042 161.187C261.887 152.818 261.41 142.687 263.832 134.721C264.163 133.583 281.635 136.63 282.809 139.824C283.947 142.98 280.717 150.579 279.653 153.625C278.919 155.718 278.037 157.773 277.01 159.792Z" fill="#C7B299"/>
<path d="M262.695 135.602C263.209 135.712 263.723 135.749 264.237 135.786C265.338 135.896 266.402 136.116 267.467 136.336C272.716 137.548 277.818 139.31 282.847 141.218C283.177 141.328 283.508 141.475 283.875 141.438C284.425 141.365 284.829 140.851 284.976 140.337C285.123 139.787 285.049 139.236 284.976 138.686C284.976 138.575 284.939 138.465 284.866 138.392C284.792 138.318 284.719 138.282 284.609 138.245C284.352 138.135 284.095 138.025 283.838 137.951C282.663 137.511 281.452 137.144 280.241 136.813C274.992 135.345 269.706 133.987 264.42 132.739C264.163 132.666 263.833 132.629 263.613 132.776C263.209 133.069 262.989 133.803 262.879 134.244C262.695 134.611 262.108 135.492 262.695 135.602Z" fill="#534741"/>
<path d="M262.437 150.578L278.147 157.405L281.303 149.11L262.437 141.438V150.578Z" fill="#5B8C87"/>
<path d="M321.387 56.4993C321.314 56.1689 320.91 55.8387 320.507 55.8754C316.579 56.2791 312.725 57.16 308.944 58.1144C307.622 58.4448 308.21 60.3903 309.495 60.0232C312.908 59.1423 316.395 58.4815 319.809 57.7107C320.25 59.4726 320.616 61.2712 320.837 63.1065C320.947 63.9141 320.984 64.7216 320.984 65.5292C321.02 66.9974 318.818 67.1075 317.864 67.291C316.689 67.5113 315.514 67.5847 314.34 67.6214C312.614 67.6948 312.504 66.9239 311.844 65.786C310.853 64.0608 310.082 62.2623 309.384 60.4269C309.164 59.8396 308.246 60.0966 308.393 60.6839C309.164 63.3268 310.155 66.0064 311.623 68.3923C312.688 70.1175 316.652 69.053 318.267 68.8327C320.066 68.5758 322.378 68.172 322.599 66.1164C323.002 62.9963 322.195 59.5459 321.387 56.4993Z" fill="#333333"/>
<path d="M330.784 53.0481C327.407 54.3328 324.177 56.2783 320.947 57.8934C320.322 58.187 320.763 59.2148 321.424 58.9945C324.837 57.8566 328.508 56.9023 331.775 55.3974C333.096 54.8101 332.142 52.5342 330.784 53.0481Z" fill="#333333"/>
<path d="M360.003 108.402C358.681 103.336 353.175 92.765 347.376 100.363C345.614 102.676 345.173 105.759 344.843 108.659C342.017 132.041 339.154 155.386 336.327 178.768C334.859 190.955 333.244 203.545 326.93 214.043C325.902 215.732 324.764 217.384 324.287 219.292C323.773 221.201 324.067 223.44 325.572 224.725C323.517 227.294 325.205 232.874 328.986 232.58C329.793 232.507 330.527 232.176 331.188 231.699C334.969 229.093 334.015 224.248 334.896 220.21C336.07 214.704 337.759 209.345 339.447 204.022C345.907 183.43 354.02 163.352 358.351 142.319C360.627 131.087 362.902 119.451 360.003 108.402Z" fill="#EADDD0"/>
<path d="M345.32 95.7755C343.852 96.1058 342.347 96.4729 341.245 97.4639C339.814 98.7487 339.337 100.768 338.933 102.64C334.528 123.783 331.188 145.146 328.912 166.656C336.18 168.491 343.485 170.326 350.753 172.162C360.003 152.047 364.15 129.619 362.682 107.558C362.425 103.631 361.764 99.2625 358.718 96.7665C355.047 93.8667 349.835 94.7477 345.32 95.7755Z" fill="#6087A2"/>
<path d="M78.5516 427.957C85.9296 427.736 93.3077 427.479 100.649 426.929C104.21 426.672 107.88 426.305 111.11 424.763C112.872 423.919 114.671 422.047 113.863 420.285C113.203 418.817 111.22 418.596 109.569 418.596C82.9565 418.56 56.3076 418.523 29.7321 420.285C24.9235 420.615 19.4543 421.349 16.7013 425.314C13.3243 430.232 23.4187 428.837 25.511 428.874C31.3473 428.948 37.1837 428.948 42.9833 428.874C54.8762 428.727 66.6954 428.36 78.5516 427.957Z" fill="url(#paint4_linear_122_132)"/>
<path d="M78.5512 427.957C85.9292 427.737 93.3072 427.479 100.649 426.929C104.209 426.672 107.88 426.305 111.11 424.763C112.872 423.919 114.671 422.047 113.863 420.285C113.202 418.817 111.22 418.597 109.568 418.597C82.956 418.56 56.3071 418.523 29.7316 420.285C24.923 420.615 19.4538 421.35 16.7008 425.314C13.3238 430.232 23.4182 428.838 25.5105 428.874C31.3468 428.948 37.1832 428.948 42.9828 428.874C54.8757 428.728 66.695 428.361 78.5512 427.957Z" fill="url(#paint5_linear_122_132)"/>
<path d="M132.437 163.412C133.135 164.036 133.832 164.623 134.713 164.88C135.924 165.211 137.209 164.807 138.384 164.403C139.191 164.146 139.962 163.853 140.769 163.596C141.063 163.486 141.393 163.375 141.577 163.082C141.761 162.788 141.724 162.458 141.687 162.091C140.916 154.676 139.521 147.335 137.466 140.177C134.199 141.682 130.969 143.187 127.702 144.692C125.94 145.499 120.03 147.115 119.92 149.244C119.81 151.409 123.994 154.933 125.353 156.401C127.592 158.861 129.941 161.21 132.437 163.412Z" fill="white"/>
<path d="M133.943 138.819C134.897 138.415 135.925 138.011 136.99 138.158C138.017 138.305 139.045 139.223 138.898 140.251C138.788 140.985 134.897 142.747 134.2 143.15C132.511 144.141 130.786 145.059 129.024 145.94C127.262 146.821 125.464 147.629 123.665 148.399C122.674 148.84 120.508 150.198 119.334 149.794C115.039 148.289 122.527 144.178 123.812 143.444C127.079 141.682 130.492 140.251 133.943 138.819Z" fill="#333333"/>
<path d="M96.0607 415.292C94.4823 415.402 92.8673 415.513 91.3256 415.109C89.784 414.705 88.3157 413.641 87.8385 412.136C87.4347 410.851 87.6183 409.162 86.5171 408.428C86.2601 408.245 85.9665 408.171 85.6362 408.135C85.4893 381.229 86.1499 365.702 85.9664 338.245C87.3245 329.106 86.5171 320.626 86.2969 311.78C85.6361 283.846 85.012 255.913 84.3513 227.979C84.2779 224.272 84.1311 220.418 82.2958 216.967C79.3225 211.388 72.7154 208.231 66.512 205.808C48.0853 198.614 27.236 188.336 22.1705 211.461C20.8124 217.591 19.7112 223.758 18.7936 229.998C18.1329 234.44 17.6189 239.065 19.234 243.469C21.987 250.957 27.0893 269.347 33.5497 274.78C50.3979 288.949 57.7391 304.953 63.2818 323.746C61.5566 330.023 63.5754 338.906 64.3462 343.751C67.9435 366.987 75.3584 388.607 78.9923 411.842C77.4506 414.705 76.7898 418.045 77.2302 421.276C77.3037 421.936 77.4505 422.597 77.8909 423.074C78.5149 423.772 79.5428 423.918 80.4604 423.992C83.0666 424.175 85.6728 424.249 88.2789 424.212C90.2978 424.175 92.4635 423.992 94.0051 422.67C96.024 420.982 96.1341 417.972 96.0607 415.292Z" fill="#998675"/>
<path d="M74.1106 256.391C68.935 244.975 49.9944 237.304 32.1184 250.334C21.4368 258.116 29.5489 266.779 31.8981 274.487C34.7612 283.847 36.6699 293.501 37.5509 303.302C39.2761 322.206 37.3307 341.807 31.6779 361.445C27.9338 374.513 27.8604 388.828 25.2543 401.859C23.8227 409.163 19.271 418.854 20.3355 426.122C24.3732 426.159 28.4111 426.195 32.4121 426.232C35.9726 426.269 39.7534 426.232 42.7266 424.286C45.6998 422.341 47.168 417.716 44.6719 415.183C42.2126 415.991 39.6064 416.798 37.0737 416.211C25.9516 413.568 40.4874 388.424 42.6164 382.881C51.6829 359.242 60.7493 335.603 67.3198 311.965C72.165 294.676 81.2317 271.991 74.1106 256.391Z" fill="#998675"/>
<path d="M77.525 130.377C81.9298 141.205 86.3345 151.997 90.7393 162.825C91.9506 165.799 93.1619 168.956 92.5746 172.076C91.5468 177.618 85.4903 180.592 80.021 181.84C69.1926 166.46 57.7769 151.483 45.8473 136.947C39.0566 128.688 28.4852 109.601 44.0855 103.838C61.778 97.3412 72.276 117.456 77.525 130.377Z" fill="#ACB18F"/>
<path d="M117.204 113.932C118.635 111.803 120.691 112.757 122.489 114.593C117.461 132.799 112.983 151.152 109.055 169.616C107.844 175.342 106.302 181.655 101.42 184.959C99.3644 186.354 96.8682 187.051 94.4089 187.455C89.9674 188.226 84.6083 187.822 82.1123 184.078C78.5518 178.719 82.9565 173.506 86.4804 169.762C90.6282 165.394 92.3901 162.568 94.9596 156.621C100.869 142.893 108.871 126.412 117.204 113.932Z" fill="#1B9D28"/>
<path d="M125.61 113.088C126.014 112.574 126.235 111.95 126.491 111.326C127.115 109.747 127.739 108.132 128.363 106.554C128.657 105.82 128.951 105.086 128.987 104.315C129.024 103.544 128.804 102.7 128.217 102.186C127.666 101.709 126.895 101.599 126.161 101.745C125.427 101.892 124.84 102.296 124.252 102.737C122.967 103.728 121.903 105.012 121.169 106.481C120.582 107.655 120.215 108.94 119.297 109.858C118.893 110.261 118.416 110.592 118.049 111.069C117.498 111.766 117.388 112.757 117.719 113.565C118.93 116.244 124.215 114.923 125.61 113.088Z" fill="#F2D6C9"/>
<path d="M96.9417 260.208C95.1064 220.932 91.032 181.767 85.7096 142.748C83.7641 128.432 81.4149 111.4 66.4386 104.72C52.5636 98.5162 35.4585 96.9379 26.4287 110.886C21.3632 118.705 20.2252 128.175 19.1607 137.352C12.7737 193.476 6.38693 249.6 0 305.725C7.01094 306.128 90.9219 318.572 91.289 313.323C91.289 313.249 91.289 313.176 91.289 313.139C91.8396 313.102 92.3534 312.992 92.8306 312.772C94.7027 311.928 95.2532 309.689 95.5836 307.743C98.0429 292.033 97.6759 276.066 96.9417 260.208Z" fill="#69BF72"/>
<path d="M122.784 157.283C122.967 156.879 123.114 156.439 123.371 156.071C123.921 155.301 124.876 155.007 125.83 154.897C126.748 154.787 127.702 154.86 128.62 154.713C131.483 154.199 133.832 151.373 136.695 151.814C137.576 151.96 138.384 152.401 139.118 152.915C140.072 153.612 140.953 154.53 141.21 155.668C141.577 157.466 140.292 159.191 139.118 160.586C138.457 161.357 137.76 162.165 136.879 162.642C136.145 163.046 135.3 163.192 134.456 163.376C132.437 163.853 130.418 164.587 128.803 165.982C127.482 167.12 126.381 168.698 124.729 169.102C121.719 169.836 118.893 166.533 118.562 163.816C118.158 161.027 121.756 159.595 122.784 157.283Z" fill="#F2D6C9"/>
<path d="M124.802 166.937C123.481 164.294 122.16 161.651 120.875 159.008C116.727 159.705 113.607 163.009 110.634 165.946C106.523 170.02 102.081 173.764 97.3461 177.141C94.5564 179.123 91.3627 181.032 87.9857 180.518C83.8746 179.894 81.2318 175.893 79.1028 172.296C71.1742 158.751 63.2457 145.17 55.3171 131.625C49.0403 120.907 42.0292 124.834 37.5143 134.451C33.4399 143.224 38.6891 153.098 42.7268 161.027C47.9391 171.268 53.7019 181.215 60.0154 190.869C63.7228 196.522 68.1643 202.469 74.7715 203.974C77.9283 204.708 81.3053 204.304 84.4253 203.386C94.5196 200.523 102.522 192.998 109.973 185.584C114.782 180.775 119.553 175.856 124.215 170.901C124.729 170.35 125.28 169.763 125.39 168.992C125.463 168.332 125.133 167.597 124.802 166.937Z" fill="#1B9D28"/>
<path d="M79.8377 50.687C78.186 45.7683 75.5798 39.7118 70.2574 38.427C64.4945 37.0689 56.3457 40.8497 52.1611 44.5203C46.9855 49.0352 43.7552 55.4222 41.9566 62.0294C39.9745 69.2238 39.6441 77.2258 42.8743 83.9798C46.1045 90.7338 53.4826 95.7993 60.8606 94.6981C65.8159 93.964 70.0372 90.6971 73.2674 86.8796C81.563 77.079 83.9122 62.8001 79.8377 50.687Z" fill="#F2D6C9"/>
<path d="M55.0599 69.1505C53.4081 66.2507 48.416 66.3976 46.9477 69.3708C45.8465 71.5732 49.8108 80.5295 50.3981 83.2825C51.9398 90.5871 44.0847 140.435 46.1035 147.666C34.3208 147.923 22.4278 146.638 11.1956 143.041C10.0577 142.674 8.84649 142.233 8.03894 141.315C7.01116 140.104 6.97438 138.342 7.0478 136.764C7.92875 113.125 29.7323 32.6643 59.0608 33.3617C62.6581 33.4351 66.2187 34.2426 69.7425 35.0869C72.055 35.6375 74.3676 36.2616 76.4599 37.4362C80.7178 39.8955 83.3606 44.5572 84.4251 49.3658C85.5263 54.1743 85.2325 59.1664 84.9756 64.0484C84.9022 65.5533 67.3199 64.0116 65.6314 63.7546C63.7227 63.461 60.1621 61.9561 58.2534 62.7636C56.051 63.6813 55.7941 67.1684 55.0599 69.1505Z" fill="#534741"/>
<path opacity="0.19" d="M29.438 223.831C24.3725 222.84 19.7473 220.381 15.2324 217.922C15.9666 215.719 16.7008 213.517 17.3982 211.314C38.1007 218.766 61.6295 218.105 81.8915 209.516C82.2219 213.003 82.5156 216.49 82.8459 219.977C77.34 221.152 71.7239 221.592 66.1445 222.069C58.5096 222.693 50.9112 223.318 43.2762 223.978C38.6879 224.345 33.9896 224.712 29.438 223.831Z" fill="white"/>
<defs>
<linearGradient id="paint0_linear_122_132" x1="165.349" y1="358.665" x2="267.831" y2="358.665" gradientUnits="userSpaceOnUse">
<stop stop-color="#4D4D4D"/>
<stop offset="1"/>
</linearGradient>
<linearGradient id="paint1_linear_122_132" x1="165.35" y1="358.664" x2="267.832" y2="358.664" gradientUnits="userSpaceOnUse">
<stop/>
<stop offset="1"/>
</linearGradient>
<linearGradient id="paint2_linear_122_132" x1="288.597" y1="419.185" x2="390.811" y2="419.185" gradientUnits="userSpaceOnUse">
<stop stop-color="#4D4D4D"/>
<stop offset="1"/>
</linearGradient>
<linearGradient id="paint3_linear_122_132" x1="288.596" y1="419.184" x2="390.81" y2="419.184" gradientUnits="userSpaceOnUse">
<stop/>
<stop offset="1"/>
</linearGradient>
<linearGradient id="paint4_linear_122_132" x1="16.0402" y1="423.823" x2="114.048" y2="423.823" gradientUnits="userSpaceOnUse">
<stop stop-color="#4D4D4D"/>
<stop offset="1"/>
</linearGradient>
<linearGradient id="paint5_linear_122_132" x1="16.0397" y1="423.823" x2="114.048" y2="423.823" gradientUnits="userSpaceOnUse">
<stop/>
<stop offset="1"/>
</linearGradient>
</defs>
</svg>
