<svg width="342" height="618" viewBox="0 0 342 618" fill="none" xmlns="http://www.w3.org/2000/svg">
<path d="M327.15 201.62H264.578V300.905H327.15V201.62Z" fill="#B2B2B2"/>
<path d="M264.822 201.621H202.25V300.905H264.822V201.621Z" fill="#D1D1D1"/>
<path d="M232.04 81.22L229.373 134.589L216.83 173.724H239.411L251.14 140.005L254.805 101.684L232.04 81.22Z" fill="#F7EBE7"/>
<path d="M231.409 267.756L235.95 288.912L220.699 290.725L216.362 269.894L231.409 267.756Z" fill="#FCC9A7"/>
<path d="M236.866 286.998C236.479 285.858 235.257 285.451 234.422 286.184C232.793 287.629 229.861 289.401 225.524 288.973C221.024 288.525 219.334 285.878 218.683 283.964C218.336 282.967 217.379 282.458 216.524 282.885L189.219 296.609C187.569 297.444 186.266 298.991 185.615 300.926C185.004 302.738 186.226 304.693 187.936 304.652L235.115 303.349C236.968 303.308 238.393 301.476 238.23 299.358L237.456 288.973C237.436 288.81 237.415 288.627 237.354 288.464L236.866 286.998Z" fill="#1F252A"/>
<path d="M231.145 165.458H195.735C195.735 165.458 174.172 164.256 172.889 181.951C171.606 199.645 204.511 250.265 209.663 277.306L239.269 274.862L217.95 201.335L270.973 201.641C274.902 201.661 278.812 201.091 282.518 199.808C292.841 196.224 308.602 191.093 300.009 162.668L231.145 165.458Z" fill="#092330"/>
<path d="M258.47 267.837L265.678 293.127L250.427 294.939L243.422 269.975L258.47 267.837Z" fill="#FCC9A7"/>
<path d="M266.594 291.213C266.207 290.072 264.986 289.665 264.151 290.398C262.522 291.844 259.59 293.615 255.253 293.188C250.753 292.74 249.063 290.093 248.411 288.179C248.065 287.181 247.108 286.672 246.253 287.099L218.947 300.823C217.298 301.658 215.995 303.206 215.343 305.14C214.732 306.952 215.954 308.907 217.664 308.866L265.658 307.563C267.511 307.523 268.936 305.69 268.773 303.572L267.164 293.188C267.144 293.025 267.124 292.842 267.063 292.679L266.594 291.213Z" fill="#1F252A"/>
<path d="M273.456 60.2473C274.25 61.0211 309.782 70.0821 309.782 70.0821L302.187 90.2608L263.336 87.3287L273.456 60.2473Z" fill="#F7EBE7"/>
<path d="M258.796 65.1143C258.796 65.1143 235.645 73.5645 232.041 81.2206C233.283 92.0328 237.09 102.438 243.362 111.336C251.059 122.25 260.568 141.003 258.817 165.458H325.746C325.746 165.458 322.142 96.6549 302.33 70.2455L258.796 65.1143Z" fill="#F7EBE7"/>
<path d="M266.39 76.028C272.967 74.6842 277.202 68.2701 275.858 61.6932L271.928 42.4512L248.125 47.3177L252.055 66.5597C253.399 73.1366 259.813 77.3719 266.39 76.028Z" fill="#FCC9A7"/>
<path d="M273.557 49.1704C273.557 49.1704 271.053 64.7677 258.917 65.7043C248.288 66.5188 249.306 51.1455 249.306 51.1455L273.557 49.1704Z" fill="#F4BE9A"/>
<path d="M259.874 57.1525L261.972 56.6638C272.499 54.2204 279.055 43.7136 276.612 33.2068L273.843 21.2136C271.399 10.6865 260.892 4.12995 250.386 6.57339L248.288 7.06208C237.761 9.50551 231.205 20.0123 233.648 30.519L236.417 42.5123C238.861 53.0394 249.368 59.5959 259.874 57.1525Z" fill="#FCC9A7"/>
<path d="M270.015 38.1954C269.526 39.0302 269.058 40.2927 268.895 42.2067C268.712 44.6298 267.49 46.9307 265.454 48.2746C259.61 52.1433 255.151 42.3492 246.517 44.08C246.517 44.08 243.137 44.589 242.465 48.356C241.793 52.1026 237.089 45.5461 236.051 41.0664C235.013 36.5868 234.483 63.2406 255.741 60.9804C255.741 60.9804 266.472 60.6343 273.7 49.6999C274.494 48.4985 274.963 47.0936 275.003 45.6479C275.064 43.5099 274.759 40.2723 272.723 37.951C272.01 37.0958 270.585 37.218 270.015 38.1954Z" fill="#1C2226"/>
<path d="M270.035 32.1479C270.035 32.1479 260.852 29.1139 262.4 15.6954C262.4 15.6954 239.594 37.2791 222.694 21.4375C222.694 21.4375 230.248 19.4216 233.364 14.2497C239.045 4.82212 255.375 -8.1688 268.447 6.85832C268.447 6.85832 284.35 4.39453 279.789 28.89L270.035 32.1479Z" fill="#1C2226"/>
<path d="M270.035 32.1479C270.911 35.8945 274.657 38.2361 278.404 37.3809C282.171 36.5054 284.492 32.7588 283.637 29.0122C282.761 25.2656 279.015 22.924 275.268 23.7792C271.501 24.6547 269.16 28.4013 270.035 32.1479Z" fill="#FCC9A7"/>
<path d="M258.429 75.2747L268.264 75.4579L261.381 89.7113L253.949 76.0484L258.429 75.2747Z" fill="#0C2C40"/>
<path d="M276.694 60.8786L264.029 75.6614L272.276 85.1297L287.446 64.279C287.446 64.279 283.556 58.0279 276.694 60.8786Z" fill="#FFF7F3"/>
<path d="M258.429 75.2743L251.14 83.5005L246.008 70.6725C246.008 70.6725 247.352 64.9101 251.547 66.0096L258.429 75.2743Z" fill="#FFF7F3"/>
<path d="M261.116 85.1096C261.116 85.1096 251.607 109.91 253.969 145.096L263.336 153.648L274.27 143.121L262.481 83.501L261.116 85.1096Z" fill="#0C2C40"/>
<path d="M278.894 143.997L258.532 150.696L257.188 162.648L284.188 154.585L278.894 143.997Z" fill="#FCC9A7"/>
<path d="M261.566 158.596C261.566 165.58 255.905 171.261 248.901 171.261C241.917 171.261 236.236 165.601 236.236 158.596C236.236 151.612 241.896 145.931 248.901 145.931C255.885 145.931 261.566 151.592 261.566 158.596Z" fill="#FCC9A7"/>
<path d="M258.795 165.458H223.406C223.406 165.458 201.843 164.256 200.56 181.951C199.277 199.645 234.605 253.523 239.757 280.543L269.363 278.1L245.621 201.315L298.644 201.62C302.573 201.641 306.483 201.071 310.189 199.788C320.512 196.204 336.272 191.073 327.68 162.648L258.795 165.458Z" fill="#0C2C40"/>
<path d="M152.039 102.885H213.226C215.242 102.885 216.973 104.29 217.401 106.266L228.925 160.306C229.496 162.953 227.459 165.458 224.751 165.458H162.546C160.509 165.458 158.758 164.012 158.371 162.017L147.865 107.976C147.335 105.329 149.351 102.885 152.039 102.885Z" fill="#B2B2B2"/>
<path d="M148.516 102.885H209.683C211.699 102.885 213.43 104.29 213.857 106.266L225.382 160.306C225.952 162.953 223.937 165.458 221.208 165.458H159.023C156.986 165.458 155.235 164.012 154.848 162.017L144.342 107.976C143.812 105.329 145.828 102.885 148.516 102.885Z" fill="#D1D1D1"/>
<path d="M227.256 160.836H269.059C270.342 160.836 271.36 161.874 271.36 163.137C271.36 164.419 270.321 165.437 269.059 165.437H226.441L227.256 160.836Z" fill="#B2B2B2"/>
<path d="M186.389 132.756C186.389 136.442 183.417 139.415 179.731 139.415C176.046 139.415 173.073 136.421 173.073 132.756C173.073 129.071 176.066 126.098 179.731 126.098C183.417 126.098 186.389 129.071 186.389 132.756Z" fill="white"/>
<path d="M295.183 89.3036L317.54 125.405L264.029 144.505L271.36 160.347C271.36 160.347 317.113 155.215 339.226 138.172C341.262 136.604 342.28 134.059 341.934 131.514C340.896 123.369 336.457 103.598 317.54 75.4982C313.692 69.7765 306.036 68.0458 300.07 71.5073C293.859 75.091 291.681 83.0322 295.183 89.3036Z" fill="#F7EBE7"/>
<path d="M278.261 139.415L317.539 125.406L297.89 93.6616" stroke="#EADDD8" stroke-width="0.7599" stroke-miterlimit="10" stroke-linecap="round" stroke-linejoin="round"/>
<path d="M251.669 127.462L241.997 101.928" stroke="#EADDD8" stroke-width="0.7599" stroke-miterlimit="10" stroke-linecap="round" stroke-linejoin="round"/>
<path d="M278.893 159.268C278.893 159.268 308.947 155.501 324.096 146.826" stroke="#EADDD8" stroke-width="0.7599" stroke-miterlimit="10" stroke-linecap="round" stroke-linejoin="round"/>
<path d="M2.30723 606.671H83.2129L83.2129 471.506H2.30723L2.30723 606.671Z" fill="#B2B2B2"/>
<path d="M82.8917 606.671H163.797L163.797 471.506H82.8917L82.8917 606.671Z" fill="#D1D1D1"/>
<path d="M90.1597 343.692L99.9039 390.349L69.4695 394.268C69.4695 394.268 66.831 345.782 69.4695 345.521C72.1081 345.286 90.1597 343.692 90.1597 343.692Z" fill="#A8754B"/>
<path d="M61.6846 296.826C61.6846 296.826 92.0928 301.111 97.5526 347.376C97.5526 347.376 87.8607 357.8 75.5041 354.586L61.6846 296.826Z" fill="#FFD686"/>
<path d="M48.492 295.232C48.492 295.232 18.8675 292.306 8.44408 313.179C-2.00548 334.052 28.455 355.787 18.0054 403.62L83.6809 400.146V357.955C83.6809 357.955 95.6456 340.505 78.6912 321.8C78.6912 321.8 77.6724 293.377 48.492 295.232Z" fill="#FFD686"/>
<path d="M146.195 410.387C146.195 410.387 167.486 402.497 173.207 423.161C178.929 443.799 202.649 578.729 202.649 578.729H183.631L172.45 525.097C172.45 525.097 156.671 507.515 151.838 470.184L85.4834 462.269L146.195 410.387Z" fill="#B5845B"/>
<path d="M102.673 459.76C102.673 459.76 113.959 459.447 133.996 453.073C154.033 446.672 168.323 453.439 160.433 476.01C152.544 498.554 112.679 603.05 112.679 603.05L97.5792 598.531L110.615 530.87C110.615 530.87 113.671 497.3 127.831 477.629C127.831 477.629 98.0494 479.118 87.8611 477.551C77.725 476.01 102.673 459.76 102.673 459.76Z" fill="#A8754B"/>
<path d="M18.0049 403.621C18.0049 403.621 -6.0813 433.898 22.8901 463.627C22.8901 463.627 37.8068 481 103.561 478.283C103.561 478.283 120.802 420.079 157.48 404.43L81.5643 394.268L18.0049 403.621Z" fill="#0C2C40"/>
<path d="M50.1109 217.932C50.1109 217.932 57.9481 186.035 30.8053 185.852C10.7161 185.721 4.7337 209.729 29.3685 225.795L50.1109 217.932Z" fill="#190D08"/>
<path d="M28.4539 231.595C28.4539 231.595 23.5427 219.055 37.5451 212.707C51.5475 206.359 56.0146 221.38 56.0146 221.38L28.4539 231.595Z" fill="#FD6C75"/>
<path d="M81.6427 260.122C81.6427 260.122 101.863 248.157 79.9969 224.123C66.3341 209.102 42.4046 209.938 29.0814 224.829C15.7583 239.719 28.3239 265.974 28.3239 265.974L37.3888 250.9L45.3305 239.197L56.6944 234.651L65.6026 235.278L73.1524 236.245L79.2393 238.805L81.6427 260.122Z" fill="#27160C"/>
<path d="M65.1264 269.79L42.4014 266.871L37.8018 302.682L60.5269 305.601L65.1264 269.79Z" fill="#B5845B"/>
<path d="M40.0264 277.521C40.0264 277.521 42.482 290.557 52.9577 293.195C56.2232 294.005 59.776 293.064 61.7614 290.374C62.31 289.642 62.7019 288.806 62.8325 287.866C63.3289 284.104 53.4018 277.521 53.4018 277.521H40.0264Z" fill="#A8754B"/>
<path d="M56.0409 286.795L54.8654 286.638C41.8296 284.966 32.6078 273.027 34.2798 259.992L35.6121 249.647C37.284 236.611 49.2226 227.389 62.2584 229.061L63.434 229.218C76.4698 230.89 85.6915 242.828 84.0196 255.864L82.6873 266.209C81.0154 279.245 69.0768 288.467 56.0409 286.795Z" fill="#B5845B"/>
<path d="M36.8399 257.405C36.8399 257.405 53.1934 252.076 52.7754 233.711C52.7754 233.711 53.8204 220.022 39.5045 232.692C25.1886 245.362 36.8399 257.405 36.8399 257.405Z" fill="#27160C"/>
<path d="M40.4452 262.421C39.8704 266.81 35.8735 269.919 31.4586 269.344C27.0697 268.769 23.961 264.772 24.5357 260.383C25.1105 255.995 29.1074 252.886 33.5223 253.461C37.9112 254.009 41.0199 258.032 40.4452 262.421Z" fill="#B5845B"/>
<path d="M45.6965 248.209L44.9651 254.009C43.2931 262.186 39.8448 259.704 38.5908 256.177L45.6965 248.209Z" fill="#27160C"/>
<path d="M86.5283 245.258C86.5283 245.258 69.8351 257.771 45.357 239.223C28.481 226.449 54.004 221.851 54.004 221.851L77.8029 226.762L86.5283 245.258Z" fill="#27160C"/>
<path d="M37.8335 302.651C37.8335 302.651 52.1233 328.148 62.2593 320.311C73.2052 311.847 48.492 295.232 48.492 295.232L37.8335 302.651Z" fill="#B5845B"/>
<path d="M44.1549 354.586C44.1549 354.586 52.9848 370.861 59.0194 383.636L123.389 379.926C123.389 379.926 136.163 369.477 146.169 378.307L136.294 390.167L55.7017 408.009C52.6191 408.689 49.4058 407.8 47.1331 405.658C40.0012 398.918 24.4836 383.218 16.96 367.204L44.1549 354.586Z" fill="#B5845B"/>
<path d="M222.817 329.481H143.714C141.102 329.481 138.855 331.31 138.332 333.844L123.442 403.726C122.71 407.148 125.323 410.387 128.823 410.387H209.259C211.897 410.387 214.17 408.506 214.666 405.92L228.251 336.039C228.878 332.642 226.265 329.481 222.817 329.481Z" fill="#B2B2B2"/>
<path d="M227.362 329.481H148.259C145.646 329.481 143.4 331.31 142.877 333.844L127.987 403.726C127.255 407.148 129.868 410.387 133.368 410.387H213.804C216.442 410.387 218.715 408.506 219.211 405.92L232.796 336.039C233.423 332.642 230.836 329.481 227.362 329.481Z" fill="#D1D1D1"/>
<path d="M125.531 404.431H71.4811C69.8352 404.431 68.5029 405.763 68.5029 407.409C68.5029 409.055 69.8352 410.387 71.4811 410.387H126.576L125.531 404.431Z" fill="#B2B2B2"/>
<path d="M178.38 368.118C178.38 372.873 182.246 376.739 187.001 376.739C191.755 376.739 195.622 372.873 195.622 368.118C195.622 363.364 191.755 359.498 187.001 359.498C182.246 359.498 178.38 363.338 178.38 368.118Z" fill="white"/>
<path d="M16.9602 303.017C15.8892 303.487 -19.5609 320.912 15.3145 374.91C15.3145 374.91 37.5981 375.276 50.5033 358.687C50.5294 358.687 46.2451 290.164 16.9602 303.017Z" fill="#FFD686"/>
<path d="M93.4775 595.579C93.9478 594.168 95.4891 593.646 96.534 594.56C98.5717 596.362 102.229 598.583 107.611 598.034C113.227 597.486 115.317 594.168 116.127 591.791C116.545 590.537 117.747 589.91 118.818 590.432L152.831 607.517C154.895 608.562 156.514 610.495 157.298 612.899C158.056 615.172 156.541 617.601 154.398 617.549L95.6458 615.929C93.3208 615.877 91.5705 613.604 91.7534 610.966L92.7199 598.008C92.7461 597.799 92.7722 597.59 92.8506 597.381L93.4775 595.579Z" fill="#FD6C75"/>
<path d="M179.242 573.217C179.346 571.728 180.679 570.813 181.906 571.44C184.336 572.642 188.437 573.817 193.505 571.884C198.756 569.873 199.932 566.137 200.089 563.629C200.167 562.323 201.16 561.383 202.335 561.618L239.64 569.22C241.913 569.69 243.977 571.127 245.387 573.243C246.72 575.228 245.884 577.971 243.82 578.468L186.687 592.287C184.44 592.836 182.141 591.111 181.645 588.499L179.189 575.751C179.137 575.542 179.137 575.333 179.137 575.098L179.242 573.217Z" fill="#FD6C75"/>
</svg>
