<svg width="596" height="409" viewBox="0 0 596 409" fill="none" xmlns="http://www.w3.org/2000/svg">
<path d="M1.00471 405.072C1.77019 405.493 2.88018 405.722 3.79876 405.837C7.16688 406.182 10.535 406.411 13.9414 406.641C20.869 407.062 27.8348 407.33 34.8007 407.483C48.7325 407.789 62.7026 407.751 76.6344 408.249C78.9309 408.325 81.189 408.593 83.4472 408.555C112.612 407.713 129.491 407.713 151.422 407.024C179.209 406.143 208.68 400.823 146.829 396.958C133.625 396.116 119.655 396.077 106.412 395.35C94.6998 394.699 82.9496 394.432 71.1994 394.432C60.9803 394.432 50.761 394.585 40.5418 394.699C29.8633 394.853 17.5008 392.747 7.66437 398.259C6.78406 398.757 5.94206 399.292 5.06175 399.713C3.83698 400.288 2.53565 400.632 1.46398 401.551C-0.641101 403.273 -0.181793 404.421 1.00471 405.072Z" fill="url(#paint0_linear_502_38)"/>
<path opacity="0.56" d="M1.00471 405.072C1.77019 405.493 2.88018 405.723 3.79876 405.838C7.16688 406.182 10.535 406.412 13.9414 406.641C20.869 407.062 27.8348 407.33 34.8007 407.483C48.7325 407.789 62.7026 407.751 76.6344 408.249C78.9309 408.325 81.189 408.593 83.4472 408.555C112.612 407.713 129.491 407.713 151.422 407.024C179.209 406.144 208.68 400.824 146.829 396.958C133.625 396.116 119.655 396.078 106.412 395.35C94.6998 394.7 82.9496 394.432 71.1994 394.432C60.9803 394.432 50.761 394.585 40.5418 394.7C29.8633 394.853 17.5008 392.748 7.66437 398.259C6.78406 398.757 5.94206 399.293 5.06175 399.714C3.83698 400.288 2.53565 400.632 1.46398 401.551C-0.641101 403.273 -0.181793 404.421 1.00471 405.072Z" fill="url(#paint1_linear_502_38)"/>
<path d="M34.1886 300.544C35.5665 273.255 32.6577 245.43 32.9256 217.949C32.0071 208.419 33.4998 198.735 37.2506 189.779C37.4803 189.205 37.7482 188.669 38.2075 188.248C39.6619 186.909 42.1114 187.636 44.0251 188.325C62.435 195.061 84.1365 193.453 100.901 183.961C104.23 188.439 105.149 193.913 105.991 199.233C107.331 207.806 108.747 216.38 109.129 224.991V225.03C109.206 226.867 109.244 228.742 109.206 230.579C108.976 241.334 106.642 251.898 104.804 262.5C103.618 269.389 102.585 276.355 102.47 283.359C102.393 289.1 103.312 294.306 101.857 299.932C98.2979 313.749 98.2979 328.791 96.8052 342.876C95.1977 357.994 93.5902 373.074 92.2889 388.23C92.2506 388.843 92.174 389.417 92.1357 390.029C91.2937 390.221 78.1657 392.9 78.1657 389.915C77.1323 360.558 76.0606 331.202 75.0272 301.807C74.5679 289.445 75.6013 247.688 72.0801 235.938C70.6257 236.052 69.1712 236.206 67.7168 236.32C59.7175 275.169 50.2638 343.258 42.2645 382.107C41.5756 385.513 40.6953 389.226 38.1692 391.407C35.6431 393.627 30.8971 392.976 30.1316 389.57C32.3898 359.946 32.6577 330.283 34.1886 300.544Z" fill="#516277"/>
<path d="M51.5657 30.5589C51.5657 19.3446 61.3639 10.2354 73.4202 10.2354C85.4766 10.2354 95.2749 19.3446 95.2749 30.5589C95.2749 32.4343 94.9686 34.2332 94.471 35.9555C94.471 36.4148 94.4328 36.8358 94.4328 37.3334C94.5094 41.3904 94.3179 45.4475 93.5142 49.4663C91.9832 57.236 87.9645 64.4697 80.348 68.9095C77.8219 70.364 74.913 71.5122 71.8511 71.474C67.7558 71.4357 64.0432 69.3306 61.2109 66.7662C51.872 58.1545 51.0299 45.2561 51.7189 33.085C51.6423 32.2046 51.5657 31.4009 51.5657 30.5589Z" fill="#D1AC9D"/>
<path d="M83.3335 68.5655C82.3001 69.9434 81.2666 71.3213 79.7357 72.2399C77.9368 73.3498 75.6403 73.656 73.4204 73.6943C70.7412 73.7325 67.9472 73.3881 65.7655 72.0102C64.2346 71.0151 60.4455 67.9532 59.4886 66.4988C56.2353 61.5614 54.1685 58.155 52.4462 52.6818C51.9104 50.9977 51.4511 49.2754 51.5277 47.5531C52.1783 47.2852 52.9437 47.7061 53.2499 48.2802C53.5561 48.8543 53.5179 49.505 53.5562 50.1557C53.671 53.5238 55.3933 56.7006 57.1157 59.686C58.6466 62.3269 62.5506 64.6616 64.9236 66.7284C67.2966 68.8335 70.5881 70.2879 73.9179 70.0965C74.339 70.0583 74.7983 70.02 75.181 69.8286C75.9848 69.4076 76.3292 68.5273 76.5589 67.7235C76.7885 66.9197 77.0947 66.0394 77.8602 65.5802C78.6256 65.1209 80.0418 65.5419 79.927 66.3839C79.8505 66.9198 79.2381 67.3025 79.2381 67.8383C79.2381 68.4507 80.1184 68.8335 80.769 68.6421C81.4197 68.489 81.9173 67.9532 82.3383 67.4939C83.3717 66.3456 84.4434 65.1591 85.4768 64.0109C85.9361 63.5133 86.4337 63.1306 87.0461 63.3986C86.2806 65.1592 84.5965 66.9197 83.3335 68.5655Z" fill="#333333"/>
<path d="M77.7453 390.335C83.3716 389.914 89.0744 390.144 94.6242 390.986C98.9109 393.818 103.619 396.191 108.594 397.952C110.049 398.488 111.541 398.985 112.613 399.98C113.685 400.976 114.106 402.698 113.111 403.731C112.23 404.65 110.699 404.765 109.36 404.765C98.9492 404.88 88.5387 404.076 78.2812 402.43C77.6688 402.315 77.0181 402.2 76.5588 401.817C76.2143 401.511 76.023 401.052 75.9082 400.631C74.8748 397.148 75.5637 393.321 77.7453 390.335Z" fill="#3D322B"/>
<path d="M29.6346 387.197C34.6868 387.733 39.6624 388.766 44.4083 390.374C47.6234 393.551 51.336 396.345 55.3548 398.68C56.5413 399.368 57.766 400.019 58.4932 401.091C59.2204 402.162 59.297 403.693 58.1871 404.497C57.2302 405.186 55.8523 405.033 54.6658 404.842C45.4417 403.311 36.4091 401.014 27.7209 397.952C27.185 397.761 26.6491 397.569 26.343 397.148C26.075 396.804 26.0368 396.421 25.9985 396C25.7689 392.785 27.1085 389.494 29.6346 387.197Z" fill="#3D322B"/>
<path d="M92.9011 220.514C93.5517 219.059 94.432 217.72 95.4271 216.418C96.8049 214.581 98.3743 212.897 99.5608 210.983C100.365 209.682 101.015 208.266 102.316 207.309C102.852 206.888 103.579 206.582 104.307 206.697C104.957 206.812 105.455 207.271 105.761 207.807C106.029 208.343 106.144 208.917 106.182 209.491L106.22 210.983C105.034 215.844 103.886 220.705 102.699 225.528C102.47 226.484 102.163 227.556 101.207 228.092C100.364 228.551 99.2928 228.436 98.336 228.283C96.3457 227.977 94.2024 227.594 92.9776 226.14C91.638 224.571 92.0591 222.351 92.9011 220.514Z" fill="#D1AC9D"/>
<path d="M102.7 204.285C102.164 207.002 101.973 210.6 104.078 211.48C106.259 212.36 108.479 209.413 109.819 206.887C112.766 201.337 115.713 195.788 118.699 190.276C124.44 179.483 130.296 168.422 132.937 156.365C134.008 151.466 134.353 145.763 131.597 142.472C129.875 140.405 127.272 139.716 124.746 139.257C112.23 136.999 112.996 151.275 110.852 162.374C108.135 176.344 105.418 190.315 102.7 204.285Z" fill="#97A8B2"/>
<path d="M85.4771 206.964C86.6636 210.753 88.1562 214.466 89.9934 217.872C93.3998 224.073 101.208 226.484 108.556 225.489C108.633 226.025 108.442 226.905 108.442 227.249C108.288 229.087 107.944 230.924 107.408 232.723C107.025 233.947 106.528 235.21 105.38 235.938C104.078 236.78 102.318 236.741 100.71 236.588C97.9161 236.359 95.0838 235.938 92.4812 235.057C88.9217 233.833 85.7832 231.766 82.9892 229.469C80.8841 227.747 78.9322 225.833 77.5926 223.575C76.2913 221.355 75.6788 218.867 75.2578 216.38C74.722 213.279 74.5306 210.103 75.0282 207.002C78.2815 207.041 81.8793 207.041 85.4771 206.964Z" fill="#516277"/>
<path d="M106.489 225.297C105.034 225.527 103.541 225.527 102.087 225.336C99.2165 224.991 96.4224 223.881 94.2791 222.121C92.4419 220.628 91.1024 218.714 89.9159 216.724C88.0787 213.624 86.7007 210.332 85.7439 206.926C86.0501 206.926 86.3946 206.926 86.7007 206.887C87.1983 208.572 87.7342 210.217 88.3083 211.863C89.7627 215.844 92.4037 220.628 96.6139 223.001C100.135 225.029 104.422 224.647 108.555 224.494C109.129 224.455 109.321 225.336 108.708 225.412C108.67 225.412 108.632 225.412 108.594 225.412C108.555 225.259 108.517 225.106 108.441 225.029C108.02 224.8 106.948 225.221 106.489 225.297Z" fill="#4B5B6B"/>
<path d="M89.9924 217.872C88.117 214.466 86.6243 210.792 85.4761 206.964C85.5526 206.964 85.6291 206.964 85.7439 206.964C86.7008 210.371 88.0787 213.662 89.9159 216.762C91.0641 218.714 92.4419 220.628 94.2791 222.159C96.4224 223.92 99.2165 225.029 102.087 225.374C103.541 225.565 105.034 225.527 106.489 225.336C106.948 225.259 108.019 224.838 108.402 225.144C108.479 225.221 108.555 225.374 108.555 225.527C101.245 226.446 93.3988 224.073 89.9924 217.872Z" fill="#516277"/>
<path d="M28.5628 188.899C28.6393 172.594 28.6776 156.328 28.7541 140.023C28.7924 126.283 32.2753 111.738 34.4952 98.1895C35.72 90.726 37.1744 88.1234 40.9253 81.5019C41.4611 80.5451 41.5376 79.9327 46.5132 78.4782C47.5849 78.1721 50.1493 76.8325 51.4506 77.0621C57.919 78.0573 64.5021 75.8374 70.9705 76.8325C77.8215 77.8659 89.3037 74.7274 94.6238 78.9758C101.819 84.6787 102.317 98.3042 103.465 107.184C104.996 119.164 108.67 131.335 109.321 143.429C109.895 154.031 110.201 164.633 110.431 175.235C110.546 180.747 112.766 199.999 107.293 203.673C104.078 205.816 95.5042 206.735 86.6629 206.965C86.3567 206.965 86.0122 207.003 85.706 207.003C85.6295 207.003 85.5529 207.003 85.4381 207.003C81.8403 207.079 78.2425 207.079 74.9892 207.003C70.1667 206.926 66.1096 206.697 63.8897 206.505C53.594 205.663 43.4131 203.75 33.3087 201.644C31.5099 201.262 29.5196 200.764 28.5628 199.271C27.8739 198.2 28.5628 190.162 28.5628 188.899Z" fill="#97A8B2"/>
<path d="M102.431 85.4432C99.79 82.4578 96.8046 79.5873 93.3217 78.5921C89.8387 77.597 85.8199 79.0131 84.442 82.764C83.2173 86.2087 84.4803 90.3423 85.8965 93.9018C89.5325 103.011 94.1254 111.584 98.7183 120.12C103.579 129.114 108.402 138.108 113.262 147.103C114.717 149.82 116.324 152.691 118.697 154.184C122.869 156.824 132.438 153.495 133.165 147.753C133.816 142.586 126.926 129.879 124.974 124.942C119.271 110.589 112.267 96.581 102.431 85.4432Z" fill="#97A8B2"/>
<path d="M73.6117 79.4347C73.2673 79.0137 72.9228 78.4779 73.1141 77.9804C73.2672 77.5976 73.7266 77.4062 74.1093 77.2531C75.9465 76.4877 77.8219 75.7987 79.7356 75.1863C80.348 74.9949 81.0752 74.8036 81.6493 75.1098C81.9555 75.2629 82.1468 75.5308 82.3382 75.7605C83.5247 77.3297 84.7112 78.8607 85.8977 80.4299C86.0891 80.6596 86.2804 80.9274 86.2804 81.2336C86.2804 81.5781 85.9743 81.8843 85.7064 82.114C84.4433 83.3388 83.2185 84.6401 82.1086 85.9796C81.3048 86.9365 80.348 89.2329 78.7788 88.2378C77.554 87.4723 77.133 85.1376 76.5206 83.9511C75.7168 82.4202 74.7217 80.8892 73.6117 79.4347Z" fill="#ABBCC4"/>
<path d="M67.1817 85.3668C66.952 86.3619 66.8372 87.357 66.4545 88.3139C66.4162 88.4287 66.3396 88.5818 66.2248 88.6583C65.8421 88.9263 65.3445 88.5053 65.1148 88.1608C62.9715 85.1754 60.4454 82.3814 57.5748 79.8936C57.0007 79.396 56.4265 78.8985 56.0821 78.2861C55.7376 77.6354 55.7377 76.8316 56.2735 76.2958C56.618 75.9513 57.1538 75.7983 57.6513 75.6452C58.723 75.339 59.833 75.0328 60.9047 74.7266C61.5553 74.5352 62.2442 74.3438 62.9332 74.4204C63.5456 74.4969 64.1197 74.8031 64.6556 75.1093C65.9569 75.8748 69.6312 77.444 69.746 78.975C69.8225 79.8553 68.6743 81.1566 68.3298 81.9987C67.794 83.0704 67.4496 84.2185 67.1817 85.3668Z" fill="#ABBCC4"/>
<path d="M76.0988 84.754C76.1371 84.6009 76.1754 84.4862 76.0988 84.3331C76.0606 84.2183 75.9458 84.1417 75.7927 84.0651C74.2235 83.07 72.1948 82.649 70.3194 82.9169C70.0898 82.9552 69.8602 82.9935 69.6688 83.1083C69.4392 83.2614 69.3243 83.4527 69.2477 83.6824C68.8267 84.6392 68.9033 85.7492 69.2477 86.7443C69.5922 87.7394 70.2046 88.6197 70.817 89.5001C70.8935 89.6149 70.9701 89.7297 71.1232 89.8063C71.2381 89.8828 71.3911 89.8828 71.5442 89.8828C74.1468 89.7297 75.563 86.6295 76.0988 84.754Z" fill="#333333"/>
<path d="M77.2865 117.097C79.8509 131.603 82.4153 146.185 83.4487 160.844C83.5252 161.839 83.5635 162.835 83.2191 163.753C82.9129 164.557 82.3387 165.207 81.7646 165.858C79.583 168.346 77.4013 170.834 75.2197 173.322C74.8369 168.193 67.6797 165.475 65.9574 160.538C65.3833 158.854 65.4598 157.055 65.5746 155.295C66.3401 142.281 67.1056 129.268 67.8711 116.255C68.2921 109.174 67.1056 96.9265 71.4306 90.8792C74.3777 91.6829 74.3394 100.18 74.7987 102.706C75.6025 107.528 76.4445 112.313 77.2865 117.097Z" fill="#333333"/>
<path d="M12.7938 144.156C7.97121 158.777 4.33518 173.704 1.92391 188.784C1.69427 190.2 1.50288 191.769 2.26836 193.032C3.26349 194.602 5.40691 195.214 7.35889 195.712C18.956 198.582 30.553 201.453 42.1884 204.323C46.3602 205.357 50.6086 206.39 54.9336 206.581C55.6991 206.62 56.5411 206.62 57.2301 206.237C57.9956 205.816 58.3783 205.05 58.6845 204.323C62.3971 196.247 65.6887 188.018 68.4827 179.675C70.0519 175.005 71.4681 170.298 72.8077 165.552C74.3004 160.155 73.0755 157.476 67.2579 156.366C61.2106 155.179 55.2781 153.189 49.3073 151.696C46.2454 150.931 13.1382 143.123 12.7938 144.156Z" fill="#E2E2E2"/>
<path d="M32.85 170.565C32.7732 170.489 32.6964 170.412 32.6196 170.335C32.7732 170.373 32.85 170.45 32.85 170.565Z" fill="white"/>
<path d="M31.0502 177.072C33.806 177.493 36.4469 178.182 39.0878 179.101C39.5854 179.292 40.2742 178.794 40.1977 178.259C39.8149 174.431 39.4322 170.642 39.0495 166.815C39.0112 166.47 38.8198 166.241 38.5519 166.087C38.1692 165.437 37.0974 165.322 36.9443 166.241C36.6764 167.886 34.7245 169.647 33.7676 170.987C32.6577 172.556 31.5861 174.202 30.4761 175.809C30.2465 176.192 30.5144 176.996 31.0502 177.072ZM37.5186 169.073C37.7865 171.714 38.0544 174.355 38.3223 176.996C36.4851 176.421 34.6479 175.962 32.7725 175.618C33.7676 174.125 34.8011 172.632 35.8345 171.178C36.332 170.489 36.9827 169.8 37.5186 169.073Z" fill="white"/>
<path d="M20.1425 198.39C20.3339 196.783 21.0228 195.29 21.5203 193.759C21.7117 193.147 21.9031 192.496 22.3624 191.96C23.013 191.233 24.1613 190.851 25.1947 191.08C26.2281 191.31 27.0701 192.075 27.2615 192.994L27.4911 194.525C27.0318 195.711 27.2232 197.013 27.7974 198.161C28.3715 199.309 29.3283 200.266 30.4 201.031C31.0124 201.491 31.7396 202.065 31.5099 202.715C31.3569 203.213 30.7445 203.481 30.2086 203.634C28.9839 203.979 27.7208 204.208 26.4577 204.208C24.6971 204.246 22.7834 203.902 21.5587 202.792C20.2956 201.72 19.9512 199.998 20.1425 198.39Z" fill="#D1AC9D"/>
<path d="M34.0361 164.25C39.892 140.827 46.3603 117.518 53.3262 94.3619C54.1299 91.6445 54.972 88.8887 54.7041 86.0947C54.4362 83.3007 52.8669 80.4684 49.9963 79.2437C46.6282 77.8275 42.4181 79.1671 39.8537 81.5784C37.2894 83.9897 35.988 87.2046 34.8398 90.3814C24.2762 119.202 19.9895 149.821 22.2859 180.058C22.5156 183.158 22.8217 186.373 21.7883 189.358C21.2525 190.928 20.4105 192.841 21.7118 194.028C23.2428 195.444 26.8022 195.367 27.9887 193.951C29.5197 192.076 29.137 186.258 29.5963 183.885C30.8211 177.34 32.4286 170.795 34.0361 164.25Z" fill="#97A8B2"/>
<path d="M90.5285 35.5724C87.0073 33.2377 81.4194 33.1612 78.2809 36.1848C78.2043 36.2231 78.1661 36.2996 78.1661 36.3761C76.2141 36.3379 74.1855 36.3761 72.2335 36.1465C70.9705 33.0463 67.4875 30.9412 64.2342 31.5536C59.6031 31.324 54.8571 33.4674 52.8286 37.9837C50.3408 43.5335 58.0339 47.5139 62.6268 47.7053C67.9469 47.935 73.4966 43.3803 72.6546 37.6775C72.6546 37.601 72.6163 37.5627 72.6163 37.4861C74.5682 37.4096 76.5585 37.5626 78.5105 37.6392C78.434 43.8779 88.6531 50.3462 92.825 44.452C95.0066 41.4283 93.3608 37.4478 90.5285 35.5724ZM61.2872 46.0212C56.6177 45.1409 51.6038 41.0839 55.6225 36.4527C57.2301 34.6155 59.4499 33.4291 61.8229 33.0081C61.8612 33.4673 62.2823 33.8884 62.8564 33.6205C66.99 31.7833 72.1187 35.3428 71.0853 40.0505C70.0902 44.4903 65.4973 46.825 61.2872 46.0212ZM91.7151 43.3038C88.6532 48.356 77.5154 41.8111 80.0415 36.7972V36.7589C82.3379 35.7255 84.5961 35.1131 87.1987 35.7638C90.3755 36.6058 93.7819 39.8591 91.7151 43.3038Z" fill="#414141"/>
<path d="M250.321 43.9094C251.163 46.6651 252.005 49.4209 252.541 52.2914C252.77 53.4779 254.416 53.0951 254.34 51.9469C254.11 49.0764 253.957 46.1675 253.497 43.3352C253.153 41.2684 249.708 41.9957 250.321 43.9094Z" fill="#666666"/>
<path d="M237.232 52.5978C238.38 53.7078 239.719 54.5115 241.059 55.3536C242.245 56.0808 243.394 56.9228 244.772 57.1908C245.422 57.3056 245.92 56.4636 245.614 55.9277C245.039 54.856 244.044 54.0905 243.126 53.325C241.901 52.2916 240.676 51.1051 239.222 50.3397C237.844 49.6125 235.93 51.2965 237.232 52.5978Z" fill="#666666"/>
<path d="M194.977 404.529C195.742 404.95 196.776 405.141 197.618 405.218C200.833 405.485 204.048 405.639 207.263 405.792C213.885 406.06 220.506 406.136 227.127 406.136C240.37 406.136 253.651 405.753 266.894 405.945C269.076 405.983 271.219 406.213 273.401 406.06C301.149 404.567 317.186 404.146 338.007 402.959C364.455 401.428 392.357 395.419 333.491 393.008C320.899 392.472 307.656 392.74 295.026 392.319C283.85 391.936 272.674 391.936 261.497 392.204C251.776 392.434 242.054 392.817 232.333 393.2C222.19 393.582 210.363 391.783 201.139 397.524C200.335 398.022 199.532 398.596 198.69 399.055C197.541 399.668 196.278 400.051 195.283 400.969C193.37 402.768 193.829 403.916 194.977 404.529Z" fill="url(#paint2_linear_502_38)"/>
<path opacity="0.56" d="M194.977 404.529C195.743 404.95 196.776 405.141 197.618 405.218C200.833 405.485 204.049 405.639 207.264 405.792C213.885 406.06 220.506 406.136 227.128 406.136C240.371 406.136 253.652 405.753 266.894 405.945C269.076 405.983 271.22 406.213 273.401 406.06C301.15 404.567 317.187 404.146 338.008 402.959C364.455 401.428 392.357 395.419 333.492 393.008C320.899 392.472 307.657 392.74 295.026 392.319C283.85 391.936 272.674 391.936 261.498 392.204C251.776 392.434 242.055 392.817 232.333 393.2C222.19 393.582 210.364 391.783 201.14 397.524C200.336 398.022 199.532 398.596 198.69 399.055C197.542 399.668 196.279 400.051 195.284 400.969C193.37 402.768 193.829 403.916 194.977 404.529Z" fill="url(#paint3_linear_502_38)"/>
<path d="M216.832 72.5771C216.832 72.5771 199.953 76.2515 178.022 146.408C178.022 146.408 174.424 171.095 202.862 206.805V186.787C202.862 179.247 198.422 170.061 197.006 162.56C194.595 149.776 199.341 143.384 204.929 132.361C208.948 124.439 212.967 116.478 216.832 108.478C216.832 108.517 225.099 85.5138 216.832 72.5771Z" fill="#736357"/>
<path d="M138.485 71.1224C135.806 72.3089 135.538 75.6004 137.95 77.361C153.948 89.0729 167.574 99.6749 179.171 109.358C180.587 110.545 182.271 111.77 184.185 111.234C185.409 110.889 186.443 109.894 187.361 108.937L199.494 96.6512C200.643 95.4647 200.757 93.551 199.724 92.4411C189.811 82.107 177.716 71.4286 162.981 60.3674C161.68 59.4105 159.957 59.2957 158.694 60.1377C152.647 64.1565 145.872 67.8308 138.485 71.1224Z" fill="#666666"/>
<path d="M148.207 73.9927C146.446 74.8347 146.255 77.0546 147.824 78.2411C158.503 86.3935 167.956 94.0483 176.338 101.282C177.372 102.201 178.635 103.158 180.051 102.813C180.969 102.583 181.735 101.895 182.424 101.206L191.571 92.3643C192.452 91.5222 192.528 90.0678 191.725 89.264C184.146 81.6092 175.228 73.9544 164.78 66.3379C163.899 65.6872 162.713 65.6489 161.833 66.2613C157.661 69.0936 153.106 71.6962 148.207 73.9927Z" fill="white"/>
<path d="M162.942 69.3999C162.636 69.2086 162.291 68.9789 161.909 69.0172C161.564 69.0172 161.258 69.2086 160.99 69.3999C160.378 69.7827 159.765 70.2036 159.191 70.6629C158.617 71.1605 158.081 71.6963 157.469 72.1556C157.01 72.5383 156.512 72.8446 156.014 73.1508C154.904 73.878 153.794 74.5669 152.646 75.2941C151.957 75.7151 151.421 75.9448 150.962 76.4806C150.809 76.672 150.656 76.9016 150.503 77.2078C151.268 78.0116 152.11 78.7388 152.991 79.4277C153.488 79.8105 154.139 80.7291 154.828 80.576C155.249 80.4994 155.67 79.9636 155.976 79.6574C156.053 79.5808 156.129 79.5425 156.206 79.466C156.359 80.1166 156.512 80.7673 156.665 81.3797C156.895 80.5759 157.01 79.7339 157.086 78.8919C157.086 78.8153 157.086 78.7005 157.124 78.6239C157.239 78.5091 157.392 78.3943 157.507 78.2795C158.961 77.0164 160.416 75.7151 161.832 74.4521C162.406 73.9545 162.904 73.5335 163.554 73.1508C163.784 73.0359 165.43 71.3901 165.468 71.3901C164.664 70.7395 163.861 69.974 162.942 69.3999Z" fill="#CCCCCC"/>
<path d="M178.099 80.3467C177.678 80.3084 177.257 80.1936 176.874 80.0788C177.334 79.543 177.831 79.0454 178.29 78.4713C177.64 78.0503 176.951 77.591 176.3 77.17C176.224 77.0934 176.109 77.0552 175.994 77.0552C175.764 77.0552 175.573 77.2465 175.42 77.4379C174.233 78.7775 172.549 79.8874 171.363 81.227C170.406 82.337 170.138 82.6432 168.76 84.289C169.296 84.6717 170.597 85.8965 171.133 86.2792C171.286 85.7816 171.707 85.3989 172.09 85.0545C173.468 83.8297 174.769 82.4901 176.032 81.1122C176.338 81.1122 176.645 81.074 176.951 80.9974C177.372 80.8443 177.755 80.6529 178.099 80.3467Z" fill="#B8CDD8"/>
<path d="M166.081 77.8582C165.66 77.5137 165.238 77.2076 164.817 76.8631C164.741 76.8248 164.703 76.7483 164.626 76.7483C164.511 76.7483 164.396 76.8248 164.32 76.9014C162.138 78.6237 159.88 80.6905 157.737 82.5277C158.081 82.8339 159.306 83.7907 159.651 84.0586C159.727 84.1352 159.842 84.2117 159.957 84.2117C160.148 84.2117 160.301 84.0586 160.416 83.9055C160.493 83.7907 160.569 83.7141 160.684 83.6376C160.837 84.2117 160.952 84.7859 161.105 85.36C161.335 84.5562 161.449 83.7525 161.526 82.9104C161.526 82.8339 161.526 82.7573 161.564 82.6425C163.019 80.9584 164.511 79.3509 166.081 77.8582Z" fill="#CCCCCC"/>
<path d="M176.032 89.1493C175.534 88.7283 175.037 88.3073 174.539 87.848C174.463 87.8097 174.386 87.7332 174.309 87.7332C174.233 87.7332 174.156 87.8097 174.118 87.848C173.084 88.7283 172.051 89.6086 171.018 90.5271C170.252 91.1778 169.487 91.8667 168.989 92.7853C169.525 93.3211 170.061 93.7805 170.635 94.2015C170.712 94.278 170.788 94.3163 170.903 94.3163C171.018 94.3163 171.132 94.278 171.209 94.2015C171.477 94.0484 171.707 93.8187 171.936 93.5891C172.128 93.857 172.281 94.0866 172.472 94.3546C172.51 94.4311 172.587 94.5077 172.663 94.4694C172.702 93.8953 172.74 93.3212 172.778 92.7471C173.927 91.6371 175.036 90.4506 176.032 89.1493Z" fill="#CCCCCC"/>
<path d="M186.596 88.2694C187.055 87.657 187.515 87.0064 187.936 86.394C187.17 85.8964 186.366 85.4372 185.601 84.9396C185.524 84.9013 185.448 84.863 185.371 84.863C185.294 84.863 185.18 84.9396 185.103 85.0161C182.462 87.2743 180.663 90.6424 178.175 93.1685C178.099 93.2451 178.022 93.3216 178.022 93.4365C178.022 93.513 178.061 93.5895 178.099 93.6278C178.711 94.5846 179.4 95.465 180.127 96.2687C181.544 94.776 182.922 93.2451 184.261 91.6758C184.759 91.1017 185.295 90.451 185.524 89.6856C186.098 89.7621 186.634 89.7621 187.208 89.6473C187.285 89.3794 187.055 89.188 186.825 89.0732C186.596 88.9584 186.366 88.8053 186.443 88.4991C186.481 88.4225 186.519 88.346 186.596 88.2694Z" fill="#B8CDD8"/>
<path d="M284.883 297.935C283.352 270.148 286.567 241.787 286.261 213.847C287.256 204.163 285.649 194.289 281.515 185.179C281.247 184.605 280.98 184.031 280.482 183.61C278.913 182.27 276.195 182.998 274.09 183.687C253.958 190.538 230.228 188.93 211.895 179.247C208.259 183.801 207.225 189.389 206.345 194.824C204.891 203.551 203.321 212.277 202.939 221.042V221.08C202.862 222.956 202.824 224.87 202.862 226.745C203.13 237.691 205.656 248.446 207.685 259.24C208.986 266.282 210.134 273.363 210.249 280.482C210.325 286.3 209.33 291.658 210.938 297.361C214.842 311.407 214.842 326.755 216.488 341.108C218.248 356.494 219.971 371.881 221.425 387.305C221.463 387.917 221.54 388.53 221.578 389.142C222.535 389.333 236.849 392.089 236.849 389.027C237.998 359.135 239.146 329.205 240.294 299.313C240.792 286.721 239.682 244.198 243.547 232.218C245.155 232.333 246.724 232.486 248.332 232.601C257.058 272.176 267.431 341.491 276.195 381.066C276.961 384.549 277.918 388.3 280.673 390.558C283.467 392.816 288.634 392.166 289.476 388.683C286.835 358.408 286.529 328.171 284.883 297.935Z" fill="#4D4D4D"/>
<path d="M259.317 27.337C259.317 17.0413 250.361 8.69751 239.3 8.69751C228.239 8.69751 219.282 17.0413 219.282 27.337C219.282 29.0593 219.55 30.7051 220.01 32.2743C220.01 32.6953 220.048 33.0781 220.048 33.5374C219.971 37.25 220.163 41.0009 220.89 44.6369C222.306 51.7559 225.98 58.3773 232.946 62.4344C235.281 63.774 237.922 64.8073 240.716 64.8073C244.467 64.7691 247.873 62.8554 250.476 60.4824C259.049 52.5979 259.777 40.7712 259.164 29.6334C259.241 28.8679 259.317 28.1407 259.317 27.337Z" fill="#C8AE9A"/>
<path d="M237.845 389.142C233.711 388.836 229.501 388.989 225.406 389.602C222.229 391.707 218.784 393.429 215.11 394.73C214.038 395.113 212.928 395.496 212.124 396.223C211.321 396.95 211.014 398.213 211.742 398.979C212.392 399.668 213.502 399.744 214.536 399.744C222.229 399.821 229.884 399.247 237.462 398.022C237.921 397.945 238.38 397.869 238.725 397.563C238.993 397.333 239.108 397.027 239.222 396.682C239.95 394.195 239.452 391.362 237.845 389.142Z" fill="#3D322B"/>
<path d="M287.219 391.171C283.506 391.554 279.832 392.357 276.311 393.506C273.938 395.84 271.22 397.907 268.235 399.629C267.355 400.127 266.474 400.625 265.9 401.39C265.365 402.156 265.326 403.304 266.13 403.878C266.819 404.375 267.852 404.261 268.733 404.107C275.507 402.998 282.167 401.275 288.597 399.017C288.98 398.864 289.4 398.711 289.63 398.443C289.822 398.213 289.86 397.907 289.898 397.601C290.089 395.304 289.094 392.893 287.219 391.171Z" fill="#3D322B"/>
<path d="M287.104 201.79C287.027 182.653 286.951 163.516 286.912 144.379C286.836 128.266 283.2 111.157 280.788 95.1968C279.487 86.432 277.918 83.37 273.937 75.5621C273.363 74.4522 273.287 73.6867 268.005 72.0026C266.857 71.6199 264.139 70.0889 262.723 70.3186C255.834 71.4668 248.83 68.8642 241.979 70.0507C234.707 71.2755 222.497 67.6011 216.832 72.5767C209.178 79.313 208.642 95.2733 207.417 105.722C205.771 119.807 201.867 134.122 201.178 148.283C200.566 160.722 200.26 173.199 200.03 185.639C199.915 192.145 197.542 214.727 203.36 219.052C206.766 221.578 215.914 222.611 225.291 222.956C225.635 222.956 225.98 222.994 226.324 222.994C226.401 222.994 226.516 222.994 226.592 222.994C230.42 223.109 234.247 223.071 237.73 222.994C242.859 222.879 247.184 222.65 249.519 222.42C260.465 221.425 271.296 219.205 282.052 216.717C283.965 216.296 286.07 215.684 287.104 213.961C287.831 212.737 287.104 203.283 287.104 201.79Z" fill="#736357"/>
<path d="M250.131 87.4274C250.552 84.442 252.503 82.069 255.068 80.538C255.642 77.6292 256.178 74.7204 256.752 71.8115C256.828 71.6967 256.905 71.6202 256.943 71.5053C257.135 71.1609 257.211 70.7782 257.173 70.3954C256.484 70.2423 255.795 70.1275 255.144 70.0127C246.533 71.735 237.691 71.7733 228.926 69.5151C229.041 70.2041 229.08 70.9313 229.003 71.6585C224.334 121.912 222.42 172.358 224.295 222.803C225.559 222.382 226.936 222.191 228.506 222.191C233.29 222.267 238.265 222.88 243.241 223.301C231.453 178.941 243.854 132.4 250.131 87.4274ZM254.034 74.6439C254.264 74.6439 254.455 74.6055 254.685 74.6055C254.34 75.4858 253.996 76.3662 253.69 77.2465C253.767 76.4044 253.919 75.5242 254.034 74.6439Z" fill="#E8E8E8"/>
<path d="M265.441 18.6868C263.795 11.7592 258.819 6.36252 252.504 3.22405C242.629 -1.67504 225.942 -2.05777 220.889 9.69238C211.015 13.1371 216.105 28.7146 225.942 25.1551C226.057 25.1168 226.171 25.0786 226.286 25.0403C231.376 27.5281 238.496 28.3701 244.773 28.4467C247.107 34.1878 251.891 39.0869 258.819 36.2929C265.479 33.5754 266.933 24.9638 265.441 18.6868Z" fill="#382717"/>
<path d="M175.879 101.474C174.424 100.709 172.855 100.211 171.209 99.9432C169.64 99.6753 167.65 99.9049 166.961 101.398C166.31 102.89 167.458 104.46 168.607 105.531C173.965 110.469 180.969 113.033 187.82 115.521C187.017 116.86 188.165 116.363 189.619 109.894C186.672 109.206 184.95 106.22 182.692 104.23C180.28 102.125 178.137 99.216 174.96 98.6802C174.845 99.1012 174.692 99.4839 174.577 99.9049C175.037 100.402 175.458 100.938 175.879 101.474Z" fill="#C8AE9A"/>
<path d="M190.576 110.125C187.859 108.785 184.185 107.56 182.73 109.397C181.238 111.311 183.764 114.335 186.06 116.401C191.074 120.956 196.126 125.472 201.14 130.027C210.938 138.868 220.966 147.901 232.87 153.987C237.73 156.474 243.548 158.503 247.682 156.704C250.246 155.594 251.624 153.221 252.734 150.848C258.284 139.136 243.165 135.73 232.181 130.372C218.325 123.635 204.432 116.861 190.576 110.125Z" fill="#736357"/>
<path d="M276.693 85.7441C276.732 82.0698 276.464 78.2041 274.665 75.1039C268.273 64.1575 253.308 81.6487 250.016 88.0788C243.318 101.169 238.037 129.453 234.439 142.811C233.712 145.49 232.984 148.322 233.712 150.925C234.975 155.518 243.893 160.532 248.141 157.661C251.93 155.097 265.364 129.568 267.163 125.281C272.368 112.727 276.464 99.4079 276.693 85.7441Z" fill="#736357"/>
<path d="M235.969 57.2299C236.505 57.2299 237.079 57.2299 237.539 56.9237C237.998 56.6558 238.304 56.0051 237.998 55.5458C236.352 55.5075 234.745 55.5075 233.099 55.4692C232.601 55.4692 232.027 55.4692 231.606 55.7754C229.157 57.4595 235.472 57.2299 235.969 57.2299Z" fill="#382717"/>
<path d="M331.596 403.755C339.381 404.004 347.166 403.932 354.952 403.826C376.671 403.541 398.391 403.293 420.111 403.008C423.488 402.973 427.861 402.333 428.074 400.022C428.287 397.96 424.839 396.645 421.924 396.005C411.509 393.766 400.56 393.304 389.753 392.877C373.863 392.273 357.938 391.775 342.048 391.348C332.13 391.1 321.927 390.886 312.685 393.161C307.637 394.405 300.243 399.667 308.277 402.262C310.516 402.973 314.995 402.688 317.413 402.866C322.141 403.257 326.833 403.577 331.596 403.755Z" fill="url(#paint4_linear_502_38)"/>
<path opacity="0.22" d="M331.596 403.755C339.381 404.004 347.166 403.932 354.952 403.826C376.671 403.541 398.391 403.293 420.111 403.008C423.488 402.973 427.861 402.333 428.074 400.022C428.287 397.96 424.839 396.645 421.924 396.005C411.509 393.766 400.56 393.304 389.753 392.877C373.863 392.273 357.938 391.775 342.048 391.348C332.13 391.1 321.927 390.886 312.685 393.161C307.637 394.405 300.243 399.667 308.277 402.262C310.516 402.973 314.995 402.688 317.413 402.866C322.141 403.257 326.833 403.577 331.596 403.755Z" fill="url(#paint5_linear_502_38)"/>
<path d="M375.32 124.666C370.912 115.814 367.357 106.607 363.803 97.4004C362.487 93.9523 361.563 89.5088 364.265 86.9849C365.9 85.4563 368.459 85.2074 370.592 85.9184C372.725 86.6294 374.503 88.1224 376.067 89.7221C378.377 92.1038 380.297 94.8055 382.11 97.5427C390.322 110.02 391.637 126.514 392.703 141.409C393.485 152.536 391.708 164.338 396.471 174.433C394.694 175.109 392.881 175.784 391.104 176.46C390.677 176.602 390.215 176.78 389.788 176.566C389.362 176.353 389.22 175.855 389.077 175.393C386.909 167.146 385.345 158.828 382.537 150.652C379.657 142.298 379.195 132.664 375.32 124.666Z" fill="#EDEDED"/>
<path d="M411.651 184.458C412.504 184.6 413.392 184.778 414.174 184.422C415.205 183.996 415.703 182.858 416.129 181.792C421.604 167.537 423.168 152.109 424.128 136.859C420.893 135.579 417.338 135.295 413.89 135.046C404.47 134.335 395.014 133.624 385.594 132.913C380.048 132.487 374.432 132.095 368.957 133.126C368.317 148.625 367.642 164.089 367.002 179.588C366.931 180.548 407.989 183.783 411.651 184.458Z" fill="#E2E2E2"/>
<path d="M395.688 158.65C395.76 158.65 395.867 158.615 395.938 158.543C395.795 158.543 395.724 158.579 395.688 158.65Z" fill="white"/>
<path d="M390.784 162.276C393.379 162.809 396.009 163.271 398.64 163.662C399.031 163.733 399.315 163.484 399.458 163.235C399.742 163.093 399.955 162.809 399.849 162.418C398.747 158.507 397.645 154.597 396.543 150.687C396.33 149.94 395.334 150.011 395.121 150.687C393.912 154.384 392.312 157.868 390.357 161.245C390.108 161.565 390.286 162.169 390.784 162.276ZM395.725 153.282C396.543 156.232 397.396 159.147 398.214 162.098C396.152 161.778 394.126 161.422 392.099 161.031C393.521 158.507 394.73 155.948 395.725 153.282Z" fill="white"/>
<path d="M372.868 73.69C370.593 76.5338 367.18 78.2401 363.909 79.8043C361.208 81.1195 358.364 82.4348 355.378 82.1505C350.224 81.6528 346.882 76.6049 344.323 72.0903C340.483 65.3006 336.537 58.1554 336.466 50.3704C336.36 43.2963 339.701 36.2578 345.211 31.8498C350.721 27.4418 358.329 25.7711 365.189 27.4063C373.437 29.397 383.035 35.1913 380.973 44.7538C380.048 49.0906 378.449 53.1787 377.702 57.5866C376.813 62.99 376.387 69.2464 372.868 73.69Z" fill="#EDDCD1"/>
<path d="M383.034 36.0796C385.344 41.1985 386.02 46.9218 386.34 52.5384C386.375 53.0361 386.376 53.6049 386.091 53.9959C385.593 54.6713 384.562 54.6002 383.745 54.458C375.036 52.8939 366.362 51.3298 357.653 49.8012C354.702 49.268 351.147 48.9481 349.228 51.2232C348.161 52.4673 347.912 54.2092 347.806 55.8444C347.521 59.7192 347.806 63.5939 348.623 67.3976C346.313 64.4471 345.388 60.679 345.068 56.9464C344.891 54.8135 344.357 52.0052 342.225 51.7208C340.127 51.472 338.848 54.2803 339.416 56.3065C339.985 58.3683 341.549 59.968 342.331 61.9231C342.936 63.4517 343.078 65.1225 343.255 66.7577C343.753 71.379 344.642 76.0002 346.668 80.1594C348.694 84.3185 351.929 88.0511 356.159 89.9351C352.676 88.5488 349.228 87.1268 345.744 85.7404C342.082 84.2829 338.456 82.7899 334.83 81.2969C332.235 80.2305 329.605 79.0574 327.65 77.0667C326.299 75.7158 325.304 74.0451 324.557 72.2677C320.718 63.5228 322.069 53.3916 324.771 44.2557C326.903 37.1105 330.103 29.8232 336.253 25.5574C343.398 20.6162 352.818 20.9006 361.456 21.6826C370.308 22.5713 379.266 27.7258 383.034 36.0796Z" fill="#EDDDB2"/>
<path d="M326.797 300.38C327.934 274.501 325.446 248.088 325.588 222.067C324.806 213.038 326.051 203.831 329.179 195.335C329.357 194.802 329.57 194.268 329.961 193.877C331.169 192.633 333.231 193.273 334.866 193.949C350.294 200.312 368.53 198.783 382.572 189.754C385.345 193.984 386.162 199.21 386.873 204.222C388.011 212.363 389.22 220.467 389.54 228.644V228.679C389.611 230.421 389.646 232.198 389.611 233.94C389.433 244.143 387.478 254.167 385.985 264.227C384.989 270.768 384.136 277.38 384.065 284.028C383.994 289.467 384.776 294.408 383.567 299.74C380.617 312.857 380.617 327.112 379.373 340.478C378.058 354.804 377.809 354.342 376.742 368.703C376.707 369.272 376.671 369.841 376.6 370.41C375.889 370.587 364.869 373.147 364.869 370.303C363.945 342.469 361.919 329.387 360.994 301.553C360.603 289.822 361.385 250.221 358.399 239.059C357.191 239.166 355.947 239.308 354.738 239.45C348.09 276.314 341.336 326.081 334.689 362.945C334.12 366.179 333.409 369.699 331.276 371.796C329.143 373.894 325.162 373.325 324.522 370.09C326.477 341.936 325.588 328.569 326.797 300.38Z" fill="#736357"/>
<path d="M356.552 109.025C356.588 109.025 356.659 109.06 356.694 109.06C356.623 109.06 356.588 109.025 356.552 109.025Z" fill="white"/>
<path d="M356.266 108.953C356.302 108.953 356.302 108.989 356.337 108.989C356.302 108.953 356.266 108.953 356.266 108.953Z" fill="white"/>
<path d="M356.373 108.989C356.337 108.989 356.337 108.953 356.337 108.953C356.408 108.989 356.48 108.989 356.551 109.024C356.48 109.024 356.444 109.024 356.373 108.989Z" fill="#1D4360"/>
<path d="M323.206 192.42C329.179 181.72 332.236 169.207 330.636 157.014C329.427 147.843 325.695 138.529 328.148 129.607C329.427 124.985 332.271 120.968 334.76 116.88C340.447 107.496 344.358 97.0445 346.277 86.2378C346.384 85.6691 346.49 85.1003 346.881 84.7093C347.699 83.8917 349.085 84.3538 350.152 84.7448C353.956 86.2023 358.221 86.38 362.132 85.3491C364.371 84.7448 364.904 83.8917 366.291 85.7757C367.464 87.3754 368.033 90.077 368.744 91.9256C371.943 100.244 374.751 108.811 375.427 117.734C375.782 122.213 375.604 126.763 376.92 131.064C377.986 134.583 380.012 137.676 381.683 140.982C387.655 152.962 388.402 166.826 392.845 179.481C393.556 181.543 394.409 183.569 394.623 185.737C394.836 187.906 394.374 190.252 392.81 191.78C391.708 192.882 390.179 193.416 388.722 193.913C386.589 194.66 384.42 195.442 382.288 196.188C379.302 197.255 376.316 198.286 373.223 198.89C369.455 199.637 365.58 199.672 361.705 199.708C354.595 199.779 347.521 199.885 340.412 199.956C336.359 199.992 332.342 200.063 328.29 199.743C325.588 199.53 322.211 198.463 321.998 195.762C321.962 194.624 322.602 193.487 323.206 192.42Z" fill="#F2F2F2"/>
<path d="M367.925 369.344C367.108 369.308 366.255 369.202 365.544 369.628C364.762 370.09 364.37 371.015 364.157 371.903C362.771 377.413 364.904 383.101 365.508 388.753C365.863 392.095 365.686 395.507 366.219 398.849C367.357 398.742 368.494 398.636 369.632 398.529C369.383 396.538 369.347 394.548 369.561 392.557C369.632 391.917 369.738 391.277 370.094 390.744C370.449 390.211 371.16 389.891 371.765 390.104C372.298 390.317 372.547 390.886 372.76 391.419C373.222 392.664 373.613 393.943 373.897 395.223C374.04 395.934 374.182 396.716 374.679 397.249C375.426 398.102 376.741 398.173 377.914 398.138C382.145 398.067 386.375 397.996 390.569 397.925C392.382 397.889 394.409 397.747 395.546 396.361C396.933 394.654 396.08 391.953 394.515 390.46C392.916 388.931 390.783 388.149 388.934 386.976C386.908 385.696 385.202 383.919 383.993 381.821C381.931 378.267 381.86 372.899 379.123 369.806C377.985 368.526 376.706 368.74 375.142 368.988C372.76 369.308 370.378 369.486 367.925 369.344Z" fill="#3D322B"/>
<path d="M323.882 365.006C323.491 364.971 323.1 365.006 322.78 365.22C322.567 365.362 322.425 365.611 322.318 365.86C320.79 368.988 320.861 372.614 320.221 376.026C319.332 380.861 317.092 385.304 315.244 389.855C314.711 391.17 314.213 392.556 314.249 393.978C314.32 396.751 316.559 399.133 319.154 400.128C321.749 401.123 324.664 400.946 327.401 400.448C327.97 400.341 328.539 400.235 329.037 399.986C329.57 399.737 329.996 399.31 330.387 398.884C333.729 395.258 333.907 389.855 334.085 384.913C334.191 382.07 334.369 379.261 334.582 376.453C334.76 374.071 335.649 371.05 335.222 368.703C334.867 366.713 333.374 366.571 331.632 366.357C329.037 365.931 326.513 365.149 323.882 365.006Z" fill="#3D322B"/>
<path d="M343.256 177.313C343.718 194.945 345.246 212.861 354.489 229.497C351.147 226.405 343.576 226.689 338.208 228.324C332.84 229.96 328.077 232.59 322.211 233.266C317.163 233.834 311.724 232.768 308.134 230.457C301.202 226.049 302.162 218.904 303.69 212.754C311.298 181.898 319.936 151.078 324.557 120.009C325.482 113.895 326.335 107.567 330.992 102.164C333.729 99.0001 337.746 96.1917 338.848 92.6369C339.416 90.824 339.168 88.9399 340.092 87.1981C341.016 85.4562 348.659 83.5366 351.503 83.9987C356.017 89.0466 348.268 95.1253 347.486 100.813C346.633 106.963 345.922 113.077 345.317 119.227C344.073 131.74 343.362 144.288 343.113 156.837C343.078 163.662 343.078 170.487 343.256 177.313Z" fill="#ACB18F"/>
<path d="M372.085 195.834C370.947 205.894 369.099 216.238 373.364 225.978C373.826 227.009 374.36 228.076 375.462 228.893C378.305 230.991 383.46 230.777 387.868 230.671C398.177 230.386 397.466 227.756 406.744 230.6C404.434 217.234 402.123 203.867 399.812 190.501C397.146 175.002 394.444 159.432 387.015 144.573C376.635 123.813 375.035 107.105 366.788 85.9897C366.255 84.6033 358.932 85.0654 356.834 84.4255C354.808 86.274 358.505 91.5352 359.323 93.8103C360.638 97.4006 361.882 100.991 363.02 104.617C365.295 111.833 367.215 119.121 368.743 126.443C371.836 141.16 373.4 156.02 373.471 170.879C373.471 179.161 373.009 187.515 372.085 195.834Z" fill="#ACB18F"/>
<path d="M358.008 169.812C359.11 169.918 360.354 169.989 360.958 170.914C361.278 171.411 361.35 172.087 361.847 172.442C362.167 172.691 362.594 172.691 362.985 172.762C364.62 173.082 365.971 174.611 366.042 176.281C366.113 177.952 364.975 179.623 363.376 180.121C361.563 180.689 359.608 179.836 357.937 178.912C354.809 177.241 351.858 175.322 349.05 173.153C348.73 172.904 348.41 172.655 348.268 172.3C347.486 170.558 348.73 167.963 350.507 167.821C352.605 167.679 355.697 169.634 358.008 169.812Z" fill="#EDDCD1"/>
<path d="M346.277 163.876C339.701 158.472 335.008 151.043 331.916 143.151C330.991 140.769 330.174 138.317 329.854 135.793C329.427 132.7 329.712 129.607 329.961 126.515C330.316 122.32 330.672 118.054 332.094 114.108C333.018 111.478 334.404 108.989 335.47 106.394C337.07 102.448 337.888 98.2537 338.705 94.0946C338.954 92.8859 339.168 91.6417 338.919 90.4687C338.67 89.26 337.817 88.1225 336.608 87.9092C335.293 87.6959 334.084 88.6202 333.089 89.5444C324.273 97.8271 319.545 109.665 317.483 121.573C316.026 129.998 315.848 138.956 319.26 146.777C320.682 150.012 322.673 152.962 324.806 155.771C331.062 163.947 339.025 171.305 348.837 174.362C349.192 174.469 349.583 174.576 349.868 174.398C350.152 174.256 350.259 173.936 350.401 173.651C351.041 172.123 352.676 169.848 351.894 168.141C351.183 166.542 347.593 164.978 346.277 163.876Z" fill="#EDEDED"/>
<path d="M516.262 406.136C522.697 406.101 529.166 405.71 535.601 405.319C553.552 404.217 571.504 403.115 589.492 402.013C592.3 401.835 595.89 401.053 595.997 398.742C596.104 396.68 593.224 395.472 590.807 394.974C582.133 393.126 573.069 393.09 564.11 393.09C550.958 393.09 537.769 393.197 524.616 393.374C516.405 393.481 507.944 393.694 500.372 396.289C496.249 397.711 490.241 403.257 496.995 405.532C498.844 406.172 502.576 405.674 504.567 405.781C508.406 406.03 512.352 406.172 516.262 406.136Z" fill="url(#paint6_linear_502_38)"/>
<path opacity="0.22" d="M516.263 406.136C522.697 406.101 529.167 405.71 535.601 405.319C553.553 404.217 571.504 403.115 589.492 402.013C592.3 401.835 595.891 401.053 595.997 398.742C596.104 396.681 593.224 395.472 590.807 394.974C582.133 393.126 573.069 393.09 564.111 393.09C550.958 393.09 537.769 393.197 524.616 393.375C516.405 393.481 507.944 393.695 500.373 396.29C496.249 397.712 490.241 403.257 496.996 405.532C498.844 406.172 502.577 405.674 504.567 405.781C508.407 406.03 512.352 406.172 516.263 406.136Z" fill="url(#paint7_linear_502_38)"/>
<path d="M484.909 89.651C484.695 88.3357 483.7 87.3048 482.705 86.3805C482.207 85.9184 481.674 85.4207 481.141 84.9942C478.332 82.7902 474.671 81.6881 471.08 82.0081C470.049 82.1147 468.983 82.328 468.237 83.0035C467.632 83.5722 467.277 84.3543 467.135 85.1719C467.099 85.3496 467.063 85.5629 467.135 85.7406C467.277 86.416 468.094 86.6649 468.77 86.7716C469.481 86.8782 470.227 87.0204 470.796 87.447C471.365 87.8736 471.72 88.7267 471.365 89.331C471.187 89.6154 470.903 89.8287 470.831 90.1486C470.725 90.6819 471.258 91.144 471.791 91.3217C473.747 91.9616 475.879 90.9307 477.87 91.3573C478.474 91.4994 479.079 91.7483 479.683 91.926C480.287 92.0682 480.963 92.1393 481.532 91.8194C482.1 91.7483 482.705 91.6417 483.273 91.4995C483.842 91.3573 484.482 91.144 484.767 90.6463C484.944 90.3619 484.98 90.0064 484.909 89.651Z" fill="#EADDD0"/>
<path d="M452.596 66.8291C457.253 66.1537 461.98 65.4427 466.708 65.656C467.632 65.6915 468.628 65.7981 469.303 66.4025C469.943 66.9712 470.157 67.86 470.37 68.7131C475.204 89.4733 480.003 110.233 484.838 130.994C484.909 131.349 485.016 131.704 484.944 132.06C484.802 132.878 483.985 133.34 483.274 133.695C471.187 139.561 457.252 139.809 443.851 139.916C442.678 139.916 441.433 139.916 440.509 139.241C439.478 138.53 439.087 137.25 438.732 136.041C433.257 116.454 431.978 95.9074 427.392 76.0716C427.072 74.6852 426.717 73.1922 427.179 71.8058C428.174 68.8197 435.142 69.3885 437.701 69.033C442.642 68.3221 447.619 67.5756 452.596 66.8291Z" fill="#545454"/>
<path d="M452.844 69.4951C457.146 68.8552 461.518 68.2154 465.855 68.322C466.708 68.3576 467.632 68.4286 468.237 68.9619C468.805 69.4595 469.019 70.2061 469.197 70.9526C473.427 88.94 477.657 106.927 481.887 124.95C481.958 125.235 482.029 125.555 481.958 125.875C481.816 126.586 481.07 127.012 480.394 127.332C469.196 132.558 456.328 132.913 443.957 133.162C442.891 133.197 441.753 133.197 440.865 132.629C439.94 132.024 439.549 130.887 439.265 129.856C434.431 112.864 433.435 95.0542 429.418 77.8489C429.134 76.6403 428.849 75.3606 429.276 74.1519C430.236 71.5214 436.634 71.9835 438.981 71.628C443.637 70.8815 448.259 70.1705 452.844 69.4951Z" fill="#F7F7F7"/>
<path d="M460.807 136.042C460.914 136.22 461.092 136.362 461.234 136.468C461.625 136.717 462.051 136.86 462.514 136.824C462.976 136.788 463.402 136.611 463.687 136.291C464.575 135.26 464.22 133.482 462.691 133.376C461.554 133.305 460.132 134.94 460.807 136.042Z" fill="#F7F7F7"/>
<path d="M509.188 117.059C505.598 112.615 503.145 107.354 499.484 102.982C494.542 97.081 489.281 92.8507 486.011 85.8833C484.482 88.265 479.364 90.6467 477.835 93.0285C483.772 101.098 489.708 107.888 492.196 118.979C493.369 124.098 498.915 131.74 501.581 136.291C503.003 138.708 504.923 140.805 506.949 142.76C511.321 146.991 516.511 150.688 522.483 151.754C531.548 153.354 540.4 147.382 540.222 137.677C540.044 128.968 528.242 129.785 522.27 127.084C517.187 124.809 512.637 121.36 509.188 117.059Z" fill="#E0C74E"/>
<path d="M525.79 81.1195C528.633 82.2926 531.371 83.0391 533.361 83.0746C535.708 83.1102 537.876 81.9371 539.938 80.8351C544.168 78.5245 548.612 75.965 550.78 71.6637C552.024 69.1398 552.344 66.2604 552.593 63.4521C553.197 56.378 553.482 49.3039 553.411 42.1942C553.375 38.5683 553.197 34.6936 551.171 31.672C547.794 26.5531 540.791 25.6643 534.641 25.3088C528.598 24.9534 522.199 24.669 516.831 27.5129C511.25 30.4989 512.53 34.9069 512.104 40.3813C511.57 47.2421 511.25 54.1385 511.179 60.9993C511.144 64.9096 511.286 69.0331 513.312 72.3747C515.267 75.5385 520.671 79.0221 525.79 81.1195Z" fill="#EADDD0"/>
<path d="M560.91 301.589C559.915 274.856 561.87 247.626 561.657 220.717C562.261 211.403 561.23 201.912 558.635 193.131C558.458 192.598 558.315 192.029 557.995 191.603C557 190.323 555.329 190.998 554.014 191.674C541.466 198.286 526.606 196.757 515.124 187.479C512.849 191.851 512.21 197.255 511.676 202.445C510.788 210.834 509.828 219.224 509.579 227.684V227.72C509.543 229.532 509.508 231.345 509.543 233.158C509.721 243.681 511.321 254.025 512.6 264.405C513.418 271.159 514.165 277.985 514.236 284.81C514.307 290.426 513.702 295.545 514.698 301.02C517.151 314.528 517.186 329.245 518.217 343.073C519.355 357.861 520.457 372.649 521.381 387.473C521.416 388.077 521.452 388.646 521.487 389.25C522.092 389.464 531.05 392.059 531.05 389.108C531.725 360.35 532.401 331.591 533.076 302.833C533.361 290.746 532.614 249.866 534.996 238.313C535.991 238.455 536.986 238.562 537.982 238.704C543.492 276.74 550.104 343.393 555.614 381.43C556.111 384.771 556.68 388.397 558.422 390.566C560.164 392.734 563.399 392.094 563.932 388.788C562.19 359.71 561.977 330.667 560.91 301.589Z" fill="#4D4D4D"/>
<path d="M534.961 389.003C534.854 388.683 534.783 388.327 534.676 388.007C533.574 383.671 533.006 379.191 533.006 374.712C533.006 372.686 533.112 370.624 532.65 368.634C530.055 368.669 522.768 368.207 520.173 368.243C519.959 368.243 519.711 368.243 519.533 368.385C519.355 368.527 519.284 368.811 519.249 369.025C518.111 375.21 521.95 382 520.564 388.15C519.995 390.602 517.72 391.491 515.623 392.735C513.81 393.837 510.219 396.503 508.051 396.503C506.807 397.001 505.492 397.499 504.567 398.494C503.643 399.489 503.288 401.125 504.141 402.191C504.887 403.115 506.238 403.187 507.411 403.222C516.44 403.293 525.505 402.511 534.392 400.876C534.925 400.769 535.494 400.663 535.885 400.272C536.205 399.952 536.347 399.525 536.454 399.134C537.485 395.188 535.992 392.415 534.961 389.003Z" fill="#BE9F3E"/>
<path d="M567.95 391.313C567.665 390.353 567.025 389.535 566.706 388.611C566.35 387.651 566.528 386.443 566.528 385.412C566.528 380.719 566.528 376.062 566.528 371.37C566.528 369.948 566.386 368.277 565.177 367.566C564.359 367.069 563.293 367.211 562.369 367.389C559.631 367.851 556.859 368.348 554.122 368.811C553.411 368.953 552.593 369.095 552.202 369.699C551.811 370.304 551.917 371.086 552.06 371.797C552.877 376.311 553.197 380.897 553.055 385.447C553.019 386.762 552.913 388.078 553.055 389.393C549.891 392.095 546.407 394.441 542.639 396.254C541.537 396.787 540.4 397.32 539.618 398.245C538.836 399.204 538.622 400.697 539.475 401.586C540.222 402.368 541.431 402.368 542.462 402.297C550.567 401.799 558.672 400.52 566.528 398.493C566.99 398.387 567.488 398.245 567.808 397.853C568.056 397.569 568.163 397.178 568.234 396.787C568.625 395.01 568.518 393.09 567.95 391.313Z" fill="#BE9F3E"/>
<path d="M525.753 90.8598C526.927 90.4688 528.1 90.0066 529.237 89.5801C535.032 87.3405 540.826 85.101 546.585 82.897C547.438 82.577 548.362 82.2216 549.251 82.3993C549.962 82.5415 550.531 82.9681 551.099 83.4302C561.942 92.1395 564.892 106.323 567.878 119.227C578.436 164.836 581.813 211.937 577.867 258.505C552.024 262.949 525.931 265.864 499.697 267.214C501.154 267.143 504.105 235.257 504.46 232.128C506.415 213.714 507.446 195.158 507.233 176.638C507.02 158.046 507.979 139.49 509.295 120.934C509.828 113.433 510.432 105.932 511.108 98.4316C511.356 95.4811 519.852 92.4595 521.985 91.9974C523.301 91.6419 524.545 91.2508 525.753 90.8598Z" fill="#FCEE9F"/>
<path d="M467.562 113.859C465.038 110.624 462.834 107.176 460.595 103.692C459.777 102.377 459.03 100.671 459.919 99.3912C460.452 98.6447 461.483 98.3247 462.407 98.4314C463.332 98.538 464.185 99.0001 464.967 99.5334C466.104 100.315 467.1 101.24 468.095 102.235C472.468 106.643 474.387 113.255 476.058 119.227C477.302 123.706 477.551 128.647 480.324 132.38C479.648 132.806 478.973 133.233 478.298 133.66C478.155 133.766 477.942 133.873 477.764 133.802C477.586 133.766 477.48 133.553 477.373 133.375C475.809 130.176 474.494 126.941 472.645 123.848C470.797 120.685 469.801 116.81 467.562 113.859Z" fill="#EDEDED"/>
<path d="M487.326 135.223C487.681 135.223 488.073 135.223 488.357 135.01C488.748 134.761 488.855 134.228 488.926 133.766C489.957 127.509 489.317 121.075 488.463 114.783C487.042 114.534 485.584 114.712 484.127 114.89C480.216 115.387 476.306 115.885 472.396 116.383C470.085 116.667 467.774 116.987 465.642 117.84C466.672 124.203 467.703 130.566 468.699 136.93C468.77 137.356 485.797 135.259 487.326 135.223Z" fill="#E2E2E2"/>
<path d="M462.3 93.2769C461.589 94.6277 460.344 95.5875 459.136 96.5118C458.14 97.2583 457.11 98.0403 455.865 98.1825C453.733 98.3958 451.955 96.6184 450.533 94.9832C448.4 92.5304 446.196 89.9354 445.521 86.7716C444.881 83.8922 445.663 80.7639 447.547 78.4889C449.431 76.2493 452.382 74.8985 455.332 75.0051C458.851 75.1473 463.259 76.6759 463.224 80.7639C463.224 82.6124 462.904 84.4254 462.975 86.2739C463.046 88.5845 463.402 91.1796 462.3 93.2769Z" fill="#EDDCD1"/>
<path d="M463.331 77.1383C464.717 79.0223 465.428 81.2974 466.033 83.5725C466.104 83.7858 466.139 83.9991 466.068 84.1768C465.926 84.4968 465.499 84.5679 465.144 84.5679C461.482 84.6389 457.785 84.7456 454.124 84.8167C452.88 84.8523 451.422 84.9945 450.818 86.0965C450.498 86.7008 450.533 87.4117 450.605 88.0871C450.818 89.6868 451.245 91.2509 451.884 92.7439C450.711 91.7486 450 90.2556 449.574 88.7626C449.325 87.9094 448.863 86.8074 447.974 86.8785C447.085 86.9496 446.801 88.1938 447.228 88.9758C447.619 89.7579 448.401 90.2911 448.898 91.0376C449.289 91.6064 449.467 92.2818 449.68 92.9217C450.249 94.7702 450.996 96.5832 452.169 98.1118C453.342 99.6403 454.977 100.884 456.861 101.311C455.333 101.027 453.804 100.742 452.275 100.458C450.676 100.174 449.041 99.8536 447.441 99.5337C446.303 99.3204 445.13 99.0715 444.17 98.3961C443.495 97.9695 442.962 97.3652 442.5 96.6898C440.225 93.4549 439.905 89.1891 440.26 85.2433C440.545 82.1506 441.22 78.9157 443.388 76.6762C445.877 74.0811 449.751 73.4057 453.342 73.0147C457.039 72.6592 461.091 74.0101 463.331 77.1383Z" fill="#EDDDB2"/>
<path d="M451.919 145.817C453.448 140.947 453.661 135.615 451.99 130.78C450.746 127.154 448.436 123.67 448.72 119.831C448.862 117.841 449.68 115.956 450.355 114.072C451.884 109.771 452.63 105.185 452.524 100.635C452.524 100.386 452.524 100.138 452.63 99.9598C452.879 99.5688 453.483 99.6399 453.981 99.711C455.652 99.9954 457.394 99.711 458.922 98.9644C459.776 98.5379 459.918 98.1468 460.664 98.7867C461.269 99.3555 461.731 100.386 462.157 101.097C464.148 104.226 465.997 107.496 467.027 111.051C467.525 112.828 467.845 114.712 468.734 116.348C469.48 117.698 470.547 118.8 471.506 119.973C474.955 124.346 476.377 129.962 479.256 134.726C479.718 135.508 480.216 136.255 480.5 137.143C480.785 137.996 480.785 138.992 480.251 139.774C479.896 140.307 479.327 140.662 478.758 140.982C477.941 141.48 477.123 141.942 476.341 142.44C475.204 143.115 474.101 143.791 472.893 144.288C471.4 144.893 469.836 145.248 468.272 145.568C465.392 146.208 462.513 146.812 459.633 147.452C457.998 147.808 456.363 148.163 454.692 148.376C453.555 148.519 452.097 148.376 451.813 147.274C451.599 146.812 451.777 146.315 451.919 145.817Z" fill="#F2F2F2"/>
<path d="M458.852 137.996C460.487 145.141 462.62 152.322 467.774 158.33C466.139 157.334 463.082 158.081 461.056 159.218C458.994 160.32 457.288 161.813 454.942 162.56C452.915 163.2 450.64 163.235 448.969 162.595C445.77 161.387 445.592 158.365 445.699 155.77C446.232 142.546 447.192 129.287 446.481 116.24C446.339 113.681 446.161 111.015 447.619 108.42C448.472 106.891 449.858 105.434 450.036 103.905C450.107 103.123 449.858 102.377 450.107 101.595C450.356 100.813 453.306 99.3907 454.479 99.3196C456.754 100.99 454.088 104.119 454.231 106.5C454.408 109.06 454.622 111.619 454.87 114.179C455.404 119.369 456.15 124.559 457.11 129.678C457.643 132.45 458.212 135.223 458.852 137.996Z" fill="#ACB18F"/>
<path d="M472.147 143.151C472.503 147.346 472.645 151.718 475.169 155.344C475.453 155.735 475.738 156.126 476.271 156.339C477.622 156.979 479.684 156.446 481.461 156.019C485.62 155.06 485.122 154.029 489.139 154.42C487.078 149.159 485.051 143.897 482.99 138.636C480.608 132.558 478.226 126.408 473.96 120.969C468.024 113.362 465.962 106.679 460.843 98.7513C460.523 98.2181 457.573 99.0357 456.648 98.929C455.973 99.8533 457.928 101.702 458.461 102.555C459.314 103.906 460.096 105.292 460.879 106.643C462.407 109.416 463.794 112.224 465.038 115.068C467.526 120.827 469.41 126.728 470.654 132.771C471.33 136.219 471.828 139.667 472.147 143.151Z" fill="#ACB18F"/>
<path d="M464.255 133.695C464.717 133.624 465.215 133.589 465.535 133.908C465.712 134.086 465.784 134.371 466.032 134.477C466.175 134.548 466.352 134.513 466.53 134.513C467.241 134.513 467.881 135.01 468.059 135.686C468.236 136.361 467.881 137.143 467.276 137.463C466.565 137.854 465.712 137.641 464.966 137.428C463.544 137.001 462.193 136.468 460.878 135.828C460.736 135.757 460.593 135.686 460.487 135.544C460.025 134.904 460.309 133.731 461.02 133.517C461.873 133.269 463.295 133.837 464.255 133.695Z" fill="#EDDCD1"/>
<path d="M458.959 132.273C455.831 130.602 453.307 127.971 451.387 125.021C450.818 124.132 450.285 123.208 449.93 122.213C449.503 121.004 449.361 119.689 449.183 118.409C448.97 116.667 448.792 114.89 449.005 113.183C449.183 112.046 449.538 110.908 449.752 109.771C450.072 108.029 450.072 106.252 450.036 104.474C450.036 103.976 450.036 103.443 449.823 102.981C449.61 102.519 449.183 102.128 448.65 102.128C448.081 102.163 447.69 102.626 447.37 103.088C444.455 107.211 443.531 112.401 443.673 117.449C443.78 121.004 444.455 124.665 446.481 127.58C447.335 128.789 448.401 129.82 449.503 130.78C452.738 133.588 456.577 135.934 460.843 136.361C460.985 136.361 461.163 136.396 461.269 136.29C461.376 136.219 461.412 136.076 461.412 135.934C461.554 135.259 462.016 134.192 461.554 133.553C461.198 132.948 459.599 132.593 458.959 132.273Z" fill="#EDEDED"/>
<path d="M474.137 136.646C473.746 135.189 473.32 133.731 472.573 132.38C471.614 130.638 470.085 129.252 468.378 128.257C467.312 127.617 466.032 127.119 464.824 127.439C463.757 127.759 462.975 128.719 462.62 129.75C462.264 130.816 462.335 131.954 462.513 133.056C463.295 137.641 467.881 145.071 473.391 143.862C474.351 143.649 475.417 143.08 475.524 142.085C475.559 141.729 475.453 141.374 475.382 141.018C474.955 139.596 474.528 138.139 474.137 136.646Z" fill="#EADDD0"/>
<path d="M528.313 156.908C525.647 163.272 521.95 170.275 515.231 171.945C510.859 173.012 506.273 171.448 502.114 169.635C493.831 166.009 485.975 161.423 478.795 155.949C474.244 152.465 469.481 147.381 470.867 141.836C471.081 140.983 471.472 140.13 472.218 139.632C473.96 138.494 476.128 140.094 477.657 141.48C485.122 148.306 494.542 153.034 504.496 154.953C505.74 155.202 507.055 155.38 508.264 155.095C511.499 154.349 513.099 150.759 514.13 147.595C518.324 135.082 521.914 122.391 524.9 109.558C525.469 107.07 526.038 104.546 527.495 102.449C529.735 99.2137 534.107 97.5785 537.947 98.5383C550.424 101.702 542.995 116.526 540.506 124.24C536.88 135.26 532.828 146.173 528.313 156.908Z" fill="#E0C74E"/>
<path d="M593.01 116.135C591.019 113.895 587.784 112.473 587.073 109.523C586.54 107.212 587.891 104.866 589.49 103.124C591.126 101.382 593.081 99.889 594.254 97.8272C596.636 93.5614 594.361 87.4116 589.739 85.7408C587.855 85.0654 585.793 85.0654 583.945 84.2834C582.096 83.5369 580.461 81.5106 581.208 79.6265C581.954 77.6714 584.976 76.4983 584.301 74.5432C584.087 73.9744 583.625 73.5478 583.127 73.1923C581.528 71.9837 579.75 71.0239 577.866 70.3129C576.409 69.7441 574.845 69.3176 573.601 68.3933C570.366 65.9405 570.295 61.0704 567.842 57.8355C567.344 57.1601 566.74 56.5913 566.1 56.0936C566.135 55.7382 566.135 55.3827 566.135 55.0272C566.206 52.2189 566.242 49.3395 565.211 46.7089C564.607 45.1448 563.612 43.7584 562.794 42.3009C562.758 42.2654 562.758 42.1943 562.723 42.1588C565.567 42.8697 568.73 42.4787 571.041 40.6657C573.707 38.5684 574.738 34.4803 572.961 31.6009C572.25 30.4634 571.219 29.6102 570.401 28.5438C567.842 25.1312 567.415 21.6119 562.51 21.1853C559.666 20.9365 556.289 21.3986 554.724 23.9936C550.352 18.1282 542.816 14.9644 535.493 15.1421C527.779 15.3199 520.42 18.8391 514.59 23.887C512.777 25.4867 511.036 27.2641 509.969 29.4325C508.903 31.6009 508.583 34.0182 508.37 36.4C508.156 38.7461 507.765 42.2654 508.903 44.4338L508.69 45.6425C507.623 47.0999 509.009 49.1262 510.467 50.1926C519.816 57.2667 534.035 55.0983 543.029 62.6345C546.833 65.7983 549.214 70.384 550.636 75.1475C551.312 77.4226 551.809 79.8043 551.561 82.186C550.992 87.5182 547.01 91.6774 543.989 96.1209C540.327 101.489 537.875 107.71 536.986 114.144C536.524 117.379 536.595 121.111 538.906 123.422C541.074 125.626 544.735 126.052 546.371 128.683C548.432 131.989 545.908 136.255 546.015 140.165C546.122 143.862 548.966 147.31 552.591 148.092C555.542 148.732 558.564 147.772 561.55 147.417C564.536 147.097 568.091 147.701 569.512 150.367C570.508 152.251 570.152 154.598 571.006 156.553C572.25 159.397 575.804 160.605 578.862 160.108C581.919 159.61 584.585 157.833 587.144 156.055C588.531 155.095 590.024 153.958 590.202 152.287C590.308 151.114 589.739 149.976 589.064 149.017C586.967 145.924 583.838 142.653 584.94 139.099C585.651 136.752 587.998 135.331 589.882 133.766C592.441 131.634 594.467 128.79 595.178 125.555C595.889 122.213 595.214 118.587 593.01 116.135Z" fill="#5E625E"/>
<defs>
<linearGradient id="paint0_linear_502_38" x1="0.794073" y1="394.657" x2="182.597" y2="410.809" gradientUnits="userSpaceOnUse">
<stop stop-color="#4D4D4D"/>
<stop offset="1"/>
</linearGradient>
<linearGradient id="paint1_linear_502_38" x1="0.794073" y1="394.657" x2="182.597" y2="410.81" gradientUnits="userSpaceOnUse">
<stop/>
<stop offset="1"/>
</linearGradient>
<linearGradient id="paint2_linear_502_38" x1="194.619" y1="394.121" x2="367.782" y2="406.081" gradientUnits="userSpaceOnUse">
<stop stop-color="#4D4D4D"/>
<stop offset="1"/>
</linearGradient>
<linearGradient id="paint3_linear_502_38" x1="194.62" y1="394.121" x2="367.782" y2="406.081" gradientUnits="userSpaceOnUse">
<stop/>
<stop offset="1"/>
</linearGradient>
<linearGradient id="paint4_linear_502_38" x1="304.88" y1="395.65" x2="427.988" y2="401.529" gradientUnits="userSpaceOnUse">
<stop stop-color="white"/>
<stop offset="1"/>
</linearGradient>
<linearGradient id="paint5_linear_502_38" x1="304.88" y1="395.65" x2="427.988" y2="401.529" gradientUnits="userSpaceOnUse">
<stop/>
<stop offset="1"/>
</linearGradient>
<linearGradient id="paint6_linear_502_38" x1="493.944" y1="399.068" x2="595.953" y2="400.256" gradientUnits="userSpaceOnUse">
<stop stop-color="white"/>
<stop offset="1"/>
</linearGradient>
<linearGradient id="paint7_linear_502_38" x1="493.945" y1="399.069" x2="595.954" y2="400.257" gradientUnits="userSpaceOnUse">
<stop/>
<stop offset="1"/>
</linearGradient>
</defs>
</svg>
