<svg width="196" height="196" viewBox="0 0 196 196" fill="none" xmlns="http://www.w3.org/2000/svg">
<circle cx="98" cy="98" r="97.5" stroke="#AC5BB9"/>
<path d="M29.8105 165.292C30.3141 165.45 30.849 165.363 31.2994 165.048C31.7498 164.734 32.0794 164.218 32.2168 163.612C36.2664 145.379 52.7247 140.653 62.5618 137.825C65.027 137.119 66.9733 136.559 68.2393 135.899C79.4447 130.03 83.0973 120.588 84.1903 113.699C84.2553 113.289 84.2295 112.866 84.1156 112.472C84.0017 112.078 83.8037 111.727 83.5416 111.455C77.7069 105.377 72.7843 96.2533 69.6783 85.7583C69.5907 85.4573 69.4528 85.1812 69.2733 84.947C65.1647 79.5571 62.8056 73.8589 62.8056 69.3183C62.8056 66.6661 63.6352 64.8868 65.5028 63.5441C65.7825 63.3423 66.0163 63.0597 66.1831 62.7218C66.3499 62.3839 66.4444 62.0013 66.4582 61.6083C67.3271 37.4394 81.5914 18.4135 99.0876 18.2902L99.5083 18.3234C117.091 18.6176 131.265 38.0514 131.772 62.562C131.779 62.897 131.845 63.2264 131.966 63.5282C132.087 63.8301 132.259 64.0975 132.472 64.3127C133.703 65.5701 134.277 67.1642 134.277 69.3278C134.277 73.1282 132.598 77.8016 129.555 82.4798C129.41 82.7049 129.298 82.9585 129.224 83.2294C126.079 95.2617 120.433 105.885 113.741 112.385C113.464 112.655 113.253 113.011 113.129 113.414C113.006 113.818 112.976 114.254 113.041 114.677C114.134 121.561 117.787 130.998 128.992 136.877C130.317 137.569 132.374 138.11 134.98 138.789C144.719 141.332 161.016 145.597 165.015 163.612C165.082 163.913 165.198 164.195 165.355 164.442C165.512 164.689 165.709 164.897 165.932 165.052C166.156 165.208 166.403 165.308 166.659 165.349C166.915 165.389 167.176 165.368 167.425 165.287C167.674 165.206 167.908 165.067 168.113 164.877C168.318 164.687 168.489 164.45 168.618 164.18C168.747 163.91 168.831 163.612 168.864 163.303C168.897 162.994 168.88 162.68 168.813 162.379C164.193 141.564 145.73 136.739 135.814 134.148C133.514 133.546 131.528 133.029 130.561 132.516C123.248 128.683 118.742 122.842 117.15 115.127C123.94 108.091 129.621 97.2355 132.869 85.0608C136.317 79.652 138.212 74.0819 138.212 69.323C138.212 66.1489 137.363 63.5014 135.68 61.4328C134.744 34.8441 119.021 13.9062 99.5083 13.5693L98.9225 13.5598C79.7632 13.6832 63.9733 34.0707 62.5933 60.1992C60.132 62.3817 58.8818 65.4419 58.8818 69.3278C58.8818 74.9406 61.5121 81.6542 66.1161 87.8127C69.2969 98.3599 74.2273 107.626 80.0974 114.112C78.5129 121.855 74.0032 127.715 66.6744 131.553C65.7269 132.051 63.8397 132.597 61.6536 133.223C51.6631 136.089 33.0739 141.427 28.4187 162.388C28.2843 162.996 28.3554 163.643 28.6164 164.188C28.8774 164.732 29.3069 165.13 29.8105 165.292V165.292Z" fill="#AC5BB9"/>
</svg>
